<?xml version="1.0" encoding="UTF-8" standalone="no"?>
<svg width="168px" height="56px" viewBox="0 0 168 56" version="1.1" xmlns="http://www.w3.org/2000/svg" xmlns:xlink="http://www.w3.org/1999/xlink" xmlns:sketch="http://www.bohemiancoding.com/sketch/ns">
    <title>logo@2x</title>
    <description>Created with Sketch (http://www.bohemiancoding.com/sketch)</description>
    <defs></defs>
    <g id="Page-1" stroke="none" stroke-width="1" fill="none" fill-rule="evenodd" sketch:type="MSPage">
        <path d="M10.3,25.1 C10.3,25.1 18.1,28.6 24.4,27.7 C34.5,27.1 41.7,22.6 41.7,22.6 L43.8,26.2 C43.8,26.2 36.6,32.7 21.5,33 C15.1,33.9 7.4,30.2 7.4,30.2 C7.4,30.2 7.8,27.4 8,27 C8.6,26.1 10.3,25.1 10.3,25.1 L10.3,25.1 Z" id="Shape" stroke="#FFFFFF" stroke-width="0.355" sketch:type="MSShapeGroup"></path>
        <path d="M7.5,28.5 L6.3,31.2 C6.3,31.2 5.5,32 6.2,32.9 C6.6,33.7 7.5,34.5 7.5,34.5 M5.4,28.8 C5.4,28.8 3.4,31.3 4,32.9" id="Shape" stroke="#FFFFFF" stroke-width="0.355" sketch:type="MSShapeGroup"></path>
        <path d="M40.8,16.6 C40.8,16.6 41.1,20.8 42.7,21.9" id="Shape" stroke="#FFFFFF" stroke-width="0.355" sketch:type="MSShapeGroup"></path>
        <path d="M36,14.6 L36,14.6 C36,15 35.7,15.3 35.3,15.3 C34.9,15.3 34.6,15 34.6,14.6 C34.6,14.2 34.9,13.9 35.3,13.9 C35.7,13.9 36,14.2 36,14.6 M36.1,14.6 C36.1,14.1 35.7,13.7 35.2,13.7 C34.7,13.7 34.3,14.1 34.3,14.6 C34.3,15.1 34.7,15.5 35.2,15.5 C35.7,15.5 36.1,15.1 36.1,14.6" id="Shape" stroke="#979797" fill="#F2DAA2" sketch:type="MSShapeGroup"></path>
        <path d="M35.7,14.6 L35.7,14.6 C35.7,14.9 35.5,15.1 35.2,15.1 C34.9,15.1 34.7,14.9 34.7,14.6 C34.7,14.3 34.9,14.1 35.2,14.1 C35.5,14.1 35.7,14.3 35.7,14.6 M35.9,14.6 C35.9,14.2 35.6,13.9 35.2,13.9 C34.8,13.9 34.5,14.2 34.5,14.6 C34.5,15 34.8,15.3 35.2,15.3 C35.6,15.3 35.9,15 35.9,14.6" id="Shape" stroke="#979797" fill="#ECCBA0" sketch:type="MSShapeGroup"></path>
        <path d="M35.5,14.6 L35.5,14.6 C35.5,14.8 35.4,14.9 35.2,14.9 C35,14.9 34.9,14.8 34.9,14.6 C34.9,14.4 35,14.3 35.2,14.3 C35.4,14.3 35.5,14.4 35.5,14.6 M35.7,14.6 C35.7,14.3 35.5,14.1 35.2,14.1 C34.9,14.1 34.7,14.3 34.7,14.6 C34.7,14.9 34.9,15.1 35.2,15.1 C35.5,15.1 35.7,14.9 35.7,14.6" id="Shape" stroke="#979797" fill="#E6BA9D" sketch:type="MSShapeGroup"></path>
        <path d="M35.3,14.6 L35.3,14.6 C35.3,14.7 35.3,14.7 35.2,14.7 C35.1,14.7 35.1,14.7 35.1,14.6 C35.1,14.5 35.1,14.5 35.2,14.5 C35.3,14.5 35.3,14.5 35.3,14.6 M35.5,14.6 C35.5,14.4 35.4,14.3 35.2,14.3 C35,14.3 34.9,14.4 34.9,14.6 C34.9,14.8 35,14.9 35.2,14.9 C35.4,14.9 35.5,14.7 35.5,14.6" id="Shape" stroke="#979797" fill="#E0AA9A" sketch:type="MSShapeGroup"></path>
        <path d="M35.3,14.6 C35.3,14.5 35.3,14.5 35.2,14.5 C35.1,14.5 35.1,14.5 35.1,14.6 C35.1,14.7 35.1,14.7 35.2,14.7 C35.3,14.7 35.3,14.6 35.3,14.6" id="Shape" stroke="#979797" fill="#DB9A97" sketch:type="MSShapeGroup"></path>
        <path d="M25.7,7.5 C25.7,6.3 26.5,5.4 27.5,5.4 C28.5,5.4 29,6.4 29,7.5 C29,8.7 28.5,9.6 27.5,9.6 C26.5,9.6 25.7,8.7 25.7,7.5" id="Shape" stroke="#979797" fill="#FFFFFF" sketch:type="MSShapeGroup"></path>
        <path d="M25.7,7.5 C25.7,6.3 26.5,5.4 27.5,5.4 C28.5,5.4 29,6.4 29,7.5 C29,8.7 28.5,9.6 27.5,9.6 C26.5,9.6 25.7,8.7 25.7,7.5 L25.7,7.5 Z" id="Shape" stroke="#FFFFFF" stroke-width="0.355" sketch:type="MSShapeGroup"></path>
        <path d="M27.9,6.2 C28.1,6.4 28.2,6.7 28.2,6.9 C28.2,7.6 27.8,7.9 26.8,8.2 C26.4,8.3 26,8.5 25.7,8.3 C25.7,8.3 25.6,7.3 25.7,6.6 L27.9,6.2 L27.9,6.2 Z" id="Shape" stroke="#979797" fill="#000000" sketch:type="MSShapeGroup"></path>
        <path d="M27.9,6.2 C28.1,6.4 28.2,6.7 28.2,6.9 C28.2,7.6 27.8,7.9 26.8,8.2 C26.4,8.3 26,8.5 25.7,8.3 C25.7,8.3 25.6,7.3 25.7,6.6 L27.9,6.2 L27.9,6.2 Z" id="Shape" stroke="#FFFFFF" stroke-width="0.355" sketch:type="MSShapeGroup"></path>
        <path d="M25.7,7.6 C25.8,6.5 26.5,5.3 27.5,5.3 C28.5,5.3 29,6.4 29,7.4 C29,7.5 28.3,7.2 27.3,7.2 C26.3,7.3 25.6,7.7 25.7,7.6" id="Shape" stroke="#979797" fill="#F2DAA2" sketch:type="MSShapeGroup"></path>
        <path d="M25.7,7.6 C25.8,6.5 26.5,5.3 27.5,5.3 C28.5,5.3 29,6.4 29,7.4 C29,7.5 28.3,7.2 27.3,7.2 C26.3,7.3 25.6,7.7 25.7,7.6 L25.7,7.6 Z" id="Shape" stroke="#FFFFFF" stroke-width="0.355" sketch:type="MSShapeGroup"></path>
        <path d="M23.6,3.2 C23.2,3.2 22.1,3.4 21.7,4.2 C21.3,4.9 21.1,5.4 21.4,5.7 C21.7,6.1 22.3,6.3 22.8,5.6 C23.3,4.9 23.4,4.2 23.8,4.1 C24.2,4 25.3,3.1 23.6,3.2" id="Shape" stroke="#979797" fill="#F2DAA2" sketch:type="MSShapeGroup"></path>
        <path d="M23.6,3.2 C23.2,3.2 22.1,3.4 21.7,4.2 C21.3,4.9 21.1,5.4 21.4,5.7 C21.7,6.1 22.3,6.3 22.8,5.6 C23.3,4.9 23.4,4.2 23.8,4.1 C24.2,4 25.3,3.1 23.6,3.2 L23.6,3.2 Z" id="Shape" stroke="#FFFFFF" stroke-width="0.355" sketch:type="MSShapeGroup"></path>
        <path d="M28.7,3.9 C28.7,3.9 27.7,3.3 27.2,3.3 C26.7,3.3 26.1,4 26.6,4.4 C27.1,4.8 27.9,5.5 28,5.6 C28.1,5.7 28.7,6.3 28.9,6.2 C29.1,6.1 29.9,5.3 29.6,5 C29.3,4.6 28.7,3.9 28.7,3.9" id="Shape" stroke="#979797" fill="#F2DAA2" sketch:type="MSShapeGroup"></path>
        <path d="M28.7,3.9 C28.7,3.9 27.7,3.3 27.2,3.3 C26.7,3.3 26.1,4 26.6,4.4 C27.1,4.8 27.9,5.5 28,5.6 C28.1,5.7 28.7,6.3 28.9,6.2 C29.1,6.1 29.9,5.3 29.6,5 C29.3,4.6 28.7,3.9 28.7,3.9 L28.7,3.9 Z" id="Shape" stroke="#FFFFFF" stroke-width="0.355" sketch:type="MSShapeGroup"></path>
        <path d="M21.4,7.6 C21.4,6.4 22.2,5.5 23.2,5.5 C24.2,5.5 24.7,6.5 24.7,7.6 C24.7,8.8 24.2,9.7 23.2,9.7 C22.2,9.7 21.4,8.7 21.4,7.6" id="Shape" stroke="#979797" fill="#FFFFFF" sketch:type="MSShapeGroup"></path>
        <path d="M21.4,7.6 C21.4,6.4 22.2,5.5 23.2,5.5 C24.2,5.5 24.7,6.5 24.7,7.6 C24.7,8.8 24.2,9.7 23.2,9.7 C22.2,9.7 21.4,8.7 21.4,7.6 L21.4,7.6 Z" id="Shape" stroke="#FFFFFF" stroke-width="0.355" sketch:type="MSShapeGroup"></path>
        <path d="M23.6,6.2 C23.8,6.4 23.9,6.7 23.9,6.9 C23.9,7.6 23.5,7.9 22.5,8.2 C22.1,8.3 21.7,8.5 21.4,8.3 C21.4,8.3 21.3,7.3 21.4,6.6 L23.6,6.2 L23.6,6.2 Z" id="Shape" stroke="#979797" fill="#000000" sketch:type="MSShapeGroup"></path>
        <path d="M23.6,6.2 C23.8,6.4 23.9,6.7 23.9,6.9 C23.9,7.6 23.5,7.9 22.5,8.2 C22.1,8.3 21.7,8.5 21.4,8.3 C21.4,8.3 21.3,7.3 21.4,6.6 L23.6,6.2 L23.6,6.2 Z" id="Shape" stroke="#FFFFFF" stroke-width="0.355" sketch:type="MSShapeGroup"></path>
        <path d="M21.4,7.7 C21.5,6.6 22.2,5.4 23.2,5.4 C24.2,5.4 24.7,6.5 24.7,7.5 C24.7,7.6 24,7.3 23,7.3 C22,7.4 21.4,7.7 21.4,7.7" id="Shape" stroke="#979797" fill="#F2DAA2" sketch:type="MSShapeGroup"></path>
        <path d="M21.4,7.7 C21.5,6.6 22.2,5.4 23.2,5.4 C24.2,5.4 24.7,6.5 24.7,7.5 C24.7,7.6 24,7.3 23,7.3 C22,7.4 21.4,7.7 21.4,7.7 L21.4,7.7 Z" id="Shape" stroke="#FFFFFF" stroke-width="0.355" sketch:type="MSShapeGroup"></path>
        <path d="M27.9,11.2 C27.9,11.2 28.4,13.4 30.2,13.1 C32,12.8 32.4,12.2 32.7,11.5 L27.9,11.2 Z M19.9,12.8 C19.9,12.8 21,13.2 21.1,14 C21.3,14.8 23,16 24.9,15.7 C26.8,15.5 28.5,15.6 29.6,13.1 L19.9,12.8 Z M18.3,10.7 C18.3,10.7 18.2,12.8 19.9,12.7 C21.5,12.6 21.7,10.8 21.7,10.8 L18.3,10.7 Z M27.7,10.5 C27.7,8.9 28.8,7.6 30.3,7.6 C31.8,7.6 32.5,8.9 32.5,10.4 C32.5,12 31.7,13.3 30.3,13.3 C28.9,13.3 27.7,12.1 27.7,10.5 L27.7,10.5 Z" id="Shape" stroke="#FFFFFF" stroke-width="0.355" sketch:type="MSShapeGroup"></path>
        <path d="M23.3,10.7 C23.3,10.7 22.4,13.5 24.4,13.6 C26.3,13.7 26.6,10.9 26.7,10.3 L23.3,10.7 Z M24,9.1 C24,9.1 25.1,8.2 26.2,8.9 L24,9.1 Z M26.2,8.9 C25.1,8.2 24,9.1 24,9.1 L23.3,10.8 C23.3,10.8 22.4,13.6 24.4,13.7 C26.3,13.8 26.6,11 26.7,10.4 C26.6,9.8 27.3,9.5 26.2,8.9 L26.2,8.9 Z" id="Shape" stroke="#FFFFFF" stroke-width="0.355" sketch:type="MSShapeGroup"></path>
        <path d="M25.5,9.6 C25.5,8.6 26.3,7.8 27.3,7.8 C28.3,7.8 29.1,8.6 29.1,9.6 C29.1,10.6 28.3,11.4 27.3,11.4 C26.3,11.4 25.5,10.6 25.5,9.6" id="Shape" stroke="#979797" fill="#FFFFFF" sketch:type="MSShapeGroup"></path>
        <path d="M20.8,9.6 C20.8,8.6 21.6,7.8 22.6,7.8 C23.6,7.8 24.4,8.6 24.4,9.6 C24.4,10.6 23.6,11.4 22.6,11.4 C21.6,11.4 20.8,10.7 20.8,9.6" id="Shape" stroke="#979797" fill="#FFFFFF" sketch:type="MSShapeGroup"></path>
        <path d="M18.7,26.3 C18.7,26.3 16.2,25.6 15.8,27.3 C15.4,29 15.4,32.2 15.4,32.2 C15.4,32.2 15.3,33.5 17.2,33.7 C19.1,33.9 22.9,34 22.9,34 C22.9,34 24.4,34.2 24.1,32.6 C23.8,31 23.8,30.7 23.9,30 C24,29.3 24.1,27.8 24.1,27.8 C24.1,27.8 24.5,26.3 22.8,26.4 C21.1,26.5 18.7,26.3 18.7,26.3" id="Shape" stroke="#979797" fill="#FEEE00" sketch:type="MSShapeGroup"></path>
        <path d="M18.7,26.3 C18.7,26.3 16.2,25.6 15.8,27.3 C15.4,29 15.4,32.2 15.4,32.2 C15.4,32.2 15.3,33.5 17.2,33.7 C19.1,33.9 22.9,34 22.9,34 C22.9,34 24.4,34.2 24.1,32.6 C23.8,31 23.8,30.7 23.9,30 C24,29.3 24.1,27.8 24.1,27.8 C24.1,27.8 24.5,26.3 22.8,26.4 C21.1,26.5 18.7,26.3 18.7,26.3 L18.7,26.3 Z" id="Shape" stroke="#FFFFFF" stroke-width="0.355" sketch:type="MSShapeGroup"></path>
        <path d="M18.9,27.3 C18.9,27.3 17.4,26.8 17.2,28.1 C17,29.4 16.9,31.7 16.9,31.7 C16.9,31.7 16.8,32.6 17.9,32.8 C19,32.9 21.2,33 21.2,33 C21.2,33 22.1,33.1 21.9,32 C21.7,30.8 21.7,30.6 21.8,30.1 C21.9,29.6 21.9,28.5 21.9,28.5 C21.9,28.5 22.1,27.4 21.2,27.5 C20.3,27.4 18.9,27.3 18.9,27.3 L18.9,27.3 Z" id="Shape" stroke="#FFFFFF" stroke-width="0.355" sketch:type="MSShapeGroup"></path>
        <path d="M43.2,8.2 L42.4,5.8 C42.4,5.8 42,4 42.9,3.7 C43.8,3.4 43.8,4.6 44.2,5.2 C44.6,5.8 45.4,7.9 45.5,8.1 C45.7,8.2 43.2,8.2 43.2,8.2" id="Shape" stroke="#000000" stroke-width="0.5" fill="#F2DAA2" sketch:type="MSShapeGroup"></path>
        <path d="M46.5,16.6 C46.5,16.6 47.9,12 46.6,10.5 C46.5,10.2 47.3,8.8 45.4,7.7 C42.8,7.7 42.4,7.9 42,8.1 C41.2,8.3 40.7,8.9 40.7,8.9 C40.7,8.9 38.2,8.3 39.7,12.5 C40,12.8 39.5,14.1 40.7,15.5 C41.2,15.8 41.2,16.7 41.2,16.7 L44.5,18.3 L46.5,16.6 L46.5,16.6 Z" id="Shape" fill="#F2DAA2" sketch:type="MSShapeGroup"></path>
        <path d="M43.9,10.9 C43.9,10.9 41.6,10.9 41.8,13.1 C42.1,14.1 42.8,14.3 43.2,13.9 C43.6,13.6 43.7,12.6 43.6,12.4 C43.6,12.7 44.4,13.5 45.2,12.6 M40.7,11.4 C40.7,11.4 40.3,12.7 41.7,13 M40.7,8.9 C40.7,8.9 39.5,10.3 40.7,11.5 C40.7,10.3 43.3,8.6 44.9,9.4 M41.1,15.9 C41.1,15.9 42.2,16 42.4,16.3 M39.5,12 C39.5,12 39.8,12.8 40.3,12.9 M46.6,10.4 C46.5,10.1 47.3,8.7 45.4,7.6 C42.7,7.6 42.3,7.8 42,8.1 C41.2,8.3 40.7,8.9 40.7,8.9 C40.7,8.9 38.2,8.3 39.7,12.6 C40,12.9 39.5,14.2 40.7,15.6 C41.2,15.9 41.2,16.8 41.2,16.8 L44.6,18.4 L46.5,16.6 C46.5,16.6 47.9,12 46.6,10.4 Z" id="mano" stroke="#000000" stroke-width="0.5" sketch:type="MSShapeGroup"></path>
        <path d="M3.6,34.5 C3.6,34.5 7.4,37 8.4,37.7 C9.4,38.4 13,41.3 14.5,41.8 C17.1,42.7 17.4,46.2 15.7,46.5 C15.1,46.9 14.2,47.3 13.2,47.7 C10.7,47.8 10.5,48.6 9.2,48.7 C7.6,49.1 5.9,49.6 2.3,50.8 C0.4,51.6 -1.9,54.9 2.7,55.5 C5,55.8 5.2,55.9 6,55.8 C7.3,55.8 8.9,55.2 10,54.9 C11.1,54.7 14.2,54.4 15.1,54.3 C16,54.2 18.8,52.1 20.6,51.5 C21.4,50.9 23.7,49.9 25,49.2 C25.5,48.9 26.5,47.8 25.1,46.1 C24.1,45.3 22.1,44.1 23.3,42.2 C24,42 25.6,41.2 27.7,41.7 C28.7,42.7 29.2,43 30.4,43.9 C31.8,45.2 31.7,47.9 32.4,48.4 C32.8,48.6 33.6,49.3 35.4,49.6 C36.8,49.9 38.8,50.9 40.6,51.7 C41.9,52.3 42.1,52.7 43.9,53.2 C45.6,53.7 48,54.4 48.6,54.6 C49.2,54.8 49.6,54.8 51.2,55 C52.8,54.7 53.7,54.6 54.6,53.7 C55.3,52.5 55.7,52.6 55.1,51 C53.1,49.8 53.4,49 48.6,47.3 C47.2,46.9 46,46.4 44.5,45.9 C42.7,45.5 39.5,43.8 39.5,43.8 C39.5,43.8 37.1,43 36.6,41.9 C36,40.7 36.9,39.1 37.9,38.4 C39,37.8 39.7,35.6 40.9,34.8 C41.6,34.2 42.1,33.6 42.1,33.6 L43.2,32.1 L45.7,28.3 L34.6,30.5 L14.3,31 L3.6,34.5 L3.6,34.5 Z" id="piernas" fill="#000000" sketch:type="MSShapeGroup"></path>
        <path d="M3.7,28.1 C3.7,28.1 0.6,32.8 3.4,34.6 C6.2,36.4 12.6,38.1 13.3,38.1 C14,38.1 18,39.7 20.2,33.4 C21.1,37.6 23.1,40.5 27.6,39.7 C30.2,40.7 37.5,35.9 40.8,33.4 C42.9,31.6 45.8,28.2 46.3,27 C46.8,25.8 44.8,21 44.8,21 L35.2,21.4 L7.3,18.7 L3.7,28.1 L3.7,28.1 Z" id="falda" stroke="#000000" stroke-width="0.5" fill="#C9D240" sketch:type="MSShapeGroup"></path>
        <path d="M10.6,25.4 C10.6,25.4 18.2,28.6 24.4,27.8 C34.3,27.2 41.3,23.1 41.3,23.1 L43.4,26.4 C43.4,26.4 36.4,32.4 21.6,32.7 C15.4,33.5 7.8,30.1 7.8,30.1 C7.8,30.1 8.2,27.5 8.4,27.2 C9,26.3 10.6,25.4 10.6,25.4" id="cinturon" stroke="#000000" stroke-width="0.5" fill="#BD6237" sketch:type="MSShapeGroup"></path>
        <path d="M1,24.7 C1.2,26.8 2.3,28.1 3.6,29 C4.9,29.9 8.2,25.6 8.2,25.6 C8.2,25.6 6.2,22.7 7,21.6 C7.9,20.6 10.7,18.9 10.7,18.9 L6.1,17.5 L5.8,17.9 C5.8,17.9 1,20.2 1,24.7 Z" id="brazo" fill="#C9D240" sketch:type="MSShapeGroup"></path>
        <path d="M5.9,17.8 C5.9,17.8 1,20.1 1,24.7 C1.2,26.8 2.3,28.1 3.6,29 C4.9,29.9 8.3,25.6 8.3,25.6 C8.3,25.6 6.2,22.6 7.1,21.6 C8,20.6 10.9,18.9 10.9,18.9 L6.2,17.5 L5.9,17.8 L5.9,17.8 Z" id="brazo" stroke="#000000" stroke-width="0.5" sketch:type="MSShapeGroup"></path>
        <g id="mano1-+-dedo11-+-dedo1" sketch:type="MSLayerGroup" transform="translate(3.000000, 24.000000)" stroke="#000000" stroke-width="0.5">
            <path d="M4.9,-0.3 C2.1,0.7 0.5,4.4 0.5,4.4 C0.5,4.4 -0.2,6.9 0.3,7.7 C0.4,8.3 0.9,8.5 1.3,8.7 C2,9 2.2,10.8 3.3,10.5 C4.4,10.2 3.76812747,9.88549842 3.76812747,9.88549842 C3.76812747,9.88549842 4.6,10.4 5.2,10.1 C5.8,9.8 5.4,9.1 5.2,8.7 C5,8.3 4.8,7.6 5.1,6.8 C5.3,6.1 5.4,3.5 6.3,2.8 C7.3,1.9 8.9,1.8 9.1,2 C9.3,2.2 7.7,-1.3 4.9,-0.3 Z" id="mano1" fill="#F2DAA2" sketch:type="MSShapeGroup"></path>
            <path d="M4.2,4.6 L3.2,7.2 C3.2,7.2 2.5,8 3.2,8.8 C3.5,9.5 4.2,10.3 4.2,10.3" id="dedo11" sketch:type="MSShapeGroup"></path>
            <path d="M2.4,4.9 C2.4,4.9 0.7,7.3 1.3,8.8" id="dedo1" sketch:type="MSShapeGroup"></path>
        </g>
        <path d="M46.4,16.3 C47.3,17.9 47.3,18.6 47.8,21.3 C48.2,24 46.6,27.4 45.3,27.4 C44.1,27.3 44.3,27.3 43.1,27.6 C41.8,27.8 41.3,27 41.1,26.7 C40.9,26.4 38.6,23.1 38.8,21.4 C39,19.7 40.3,17.6 40.3,17.6 L41.1,16.7 C41.1,16.7 44.1,18.4 46.4,16.3" id="Shape" stroke="#000000" stroke-width="0.5" fill="#C9D240" sketch:type="MSShapeGroup"></path>
        <path d="M5.9,17.9 C7.9,18.7 9.7,21 11.4,21.7 C12.2,22.6 11.7,22.2 12.5,22.5 C13.1,22.3 12.5,23.1 13,23.4 C13.5,23.7 13.1,23.4 13.7,23.8 C13.9,24.6 14.8,24.3 15.5,24.7 C16.1,25.1 16.1,25.5 17,25.8 C18,26.1 18.3,25.7 19.1,25.7 C20,25.7 21,26.4 21.7,26.9 C22.3,27.1 23.5,26.8 24,26.6 C24.2,26.6 24.1,26.6 24.3,26.8 C25,26.9 25.2,26.8 25.6,26.7 C25.9,26.7 25.7,27 26.2,27.2 C26.7,27.4 26.9,26.9 27.5,26.7 C28.1,26.5 27.6,27 28.4,27 C29.3,27 29,26.8 29.7,26.4 C29.9,26.3 30.1,26.8 30.7,26.7 C30.9,26.7 31.1,26.6 31.7,26.4 C31.9,26.3 32.7,26.5 33.3,26.4 C34,26.2 36.4,23.9 37.3,23.9 C38.4,23.4 38.9,22.8 39.5,21.9 C40.1,21 41.4,20.4 41.8,19.7 L41.5,17.6 L41.4,16.6 C41.4,16.6 36.9,17.2 37.9,11.5 C38.6,8 37.9,5 33.1,2.5 C28.3,-9.52571355e-14 18.5,1.3 17.6,1.5 C13.6,2 6.6,8.9 15.6,12.8 C15.4,12.9 14.3,14.6 14.3,14.6 C14.3,14.6 7.5,14.3 5.9,17.9 Z" id="Shape" stroke="#000000" stroke-width="0.5" fill="#007948" sketch:type="MSShapeGroup"></path>
        <path d="M26.9,2.3 C22.6,2 19.1,2.2 18.5,2.3 C13.8,3 9.1,7.9 17,11.2 L21.6,14.5 L27.3,6.8 L26.9,2.3 L26.9,2.3 Z" id="Shape" fill="#254720" sketch:type="MSShapeGroup"></path>
        <path d="M15.1,12.9 C14.5,13.6 13.1,15.2 13.2,17.2 C13.6,17.7 13.8,17.1 13.8,17.1 C13.8,17.1 12.8,20.9 14.4,22.4 C14.9,22.8 15.2,22.6 15.4,22.9 C15.8,23.6 15.9,23.8 15.9,23.8 C15.9,23.8 16.7,23.7 18.2,23.7 C18.3,24.2 17.4,24.6 17.8,25 C18.3,25.4 19.7,25.1 19.7,25.1 C19.7,25.1 21,25.3 21.5,25.4 C22.3,25.5 23.1,24.8 23.1,24.8 C23.1,24.8 23.3,25.5 23.7,25.5 C25.2,25 26.5,25.6 26.8,25.6 C27.2,25.4 28.5,24.9 29.1,24.9 C29.7,24.9 30.2,25 31.3,24.4 C32,23.8 32.7,22.5 32.8,22.6 C33.3,22.4 33.2,23.5 33.2,23.5 C34,23.3 34.3,20.9 34.3,20.9 C34.3,20.9 35.1,18.7 35.7,20.7 C36.2,20.7 36.8,17.5 36.2,16.9 C36.1,16.7 36,16.6 35.9,16.4 L24.6,17.9 L15.1,12.9 Z" id="Shape" stroke="#000000" stroke-width="0.5" fill="#FFFFFF" sketch:type="MSShapeGroup"></path>
        <path d="M33.7,13.5 C33.5,12.9 33.4,12.4 33.4,11.8 C33.1,11.4 33,11.3 32.7,10.8 C31.9,9.5 32.4,9.3 32.1,7 C31.1071404,4.81570897 30.902897,4.30722712 28.9425683,2.83198001 C28.5,2.7 27,2.1 25.6,2.3 C22.7,2.7 20.7,4.2 19.7,6.6 C18.8,11 15.4,12.7 15.4,12.7 C15.4,12.7 15.4,12.7 15.1,13 C15.1,13 14,18.5 19.7,20.1 C21.4,20.2 21.8,20.3 22.4,20.1 C22.9,19.9 23.4,19.2 25.6,20.8 C29.3,21.8 30,20.8 31.6,20.5 C33.6,20 36.1,16.4 36.1,16.3 C35.7,15.6 34.6,14.7 33.7,13.5 Z" id="Shape" stroke="#000000" stroke-width="0.5" fill="#F2DAA2" sketch:type="MSShapeGroup"></path>
        <path d="M26.1,7.5 C26.1,6.5 26.7,5.7 27.5,5.7 C28.3,5.7 28.7,6.5 28.7,7.5 C28.7,8.5 28.3,9.3 27.5,9.3 C26.7,9.3 26.1,8.4 26.1,7.5" id="Shape" fill="#FFFFFF" sketch:type="MSShapeGroup"></path>
        <path d="M26,7.5 C26,6.5 26.7,5.7 27.5,5.7 C28.3,5.7 28.7,6.5 28.7,7.5 C28.7,8.5 28.3,9.3 27.5,9.3 C26.7,9.3 26,8.5 26,7.5 L26,7.5 Z" id="Shape" stroke="#000000" stroke-width="0.5" sketch:type="MSShapeGroup"></path>
        <path d="M27.6,6.5 C27.7,6.6 27.8,6.8 27.8,7 C27.8,7.5 27.5,7.7 26.9,7.9 C26.6,8 26.3,8.1 26.2,8 C26.2,8 26.1,7.3 26.2,6.9 L27.6,6.5 L27.6,6.5 Z" id="Shape" fill="#000000" sketch:type="MSShapeGroup"></path>
        <path d="M26.1,7.2 C26.2,6.5 26.7,5.6 27.5,5.6 C28.3,5.6 28.7,6.4 28.7,7 C28.7,7.1 28.1,6.9 27.4,6.9 C26.7,6.9 26,7.3 26.1,7.2" id="Shape" stroke="#000000" stroke-width="0.5" fill="#F2DAA2" sketch:type="MSShapeGroup"></path>
        <path d="M23.5,3.5 C23.2,3.5 22.3,3.7 21.9,4.3 C21.6,4.9 21.4,5.2 21.7,5.5 C22,5.8 22.4,6 22.9,5.4 C23.4,4.8 23.4,4.3 23.7,4.2 C23.9,4.1 24.8,3.4 23.5,3.5 L23.5,3.5 Z" id="Shape" stroke="#000000" stroke-width="0.5" sketch:type="MSShapeGroup"></path>
        <path d="M28.6,4 C28.6,4 27.8,3.5 27.4,3.5 C26.9,3.5 26.5,4 26.9,4.3 C27.3,4.6 27.9,5.1 28,5.2 C28.1,5.3 28.6,5.8 28.8,5.7 C29,5.6 29.6,5 29.4,4.7 C29.1,4.6 28.6,4 28.6,4 L28.6,4 Z" id="Shape" stroke="#000000" stroke-width="0.5" sketch:type="MSShapeGroup"></path>
        <path d="M21.8,7.5 C21.8,6.5 22.4,5.7 23.2,5.7 C24,5.7 24.4,6.5 24.4,7.5 C24.4,8.5 24,9.3 23.2,9.3 C22.4,9.3 21.8,8.5 21.8,7.5" id="Shape" stroke="#000000" stroke-width="0.5" fill="#FFFFFF" sketch:type="MSShapeGroup"></path>
        <path d="M21.7,7.5 C21.7,6.5 22.4,5.7 23.2,5.7 C24,5.7 24.4,6.5 24.4,7.5 C24.4,8.5 24,9.3 23.2,9.3 C22.4,9.4 21.7,8.5 21.7,7.5 L21.7,7.5 Z" id="Shape" stroke="#000000" stroke-width="0.066" sketch:type="MSShapeGroup"></path>
        <path d="M23.3,6.6 C23.4,6.7 23.5,6.9 23.5,7.1 C23.5,7.6 23.2,7.8 22.6,8 C22.3,8.1 22,8.2 21.9,8.1 C21.9,8.1 21.8,7.4 21.9,7 L23.3,6.6 L23.3,6.6 Z" id="Shape" fill="#000000" sketch:type="MSShapeGroup"></path>
        <path d="M21.8,7.3 C21.9,6.6 22.4,5.7 23.2,5.7 C24,5.7 24.4,6.5 24.4,7.1 C24.4,7.2 23.8,7 23.1,7 C22.4,7 21.7,7.3 21.8,7.3" id="Shape" stroke="#000000" stroke-width="0.5" fill="#F2DAA2" sketch:type="MSShapeGroup"></path>
        <path d="M27.8,11.2 C27.8,11.2 28.3,13.3 30,13 C31.7,12.7 32.1,12.1 32.4,11.5 M20.1,12.7 C20.1,12.7 21.1,13.1 21.3,13.8 C21.5,14.5 23.2,15.6 25,15.4 C26.8,15.2 28.5,15.3 29.5,13 M18.6,10.8 C18.6,10.8 18.5,12.7 20.1,12.7 C21.7,12.6 21.8,10.9 21.8,10.9" id="Shape" stroke="#000000" stroke-width="0.5" sketch:type="MSShapeGroup"></path>
        <path d="M23.5,10.8 C23.5,10.8 22.8,13.3 24.4,13.4 C26,13.5 26.3,11.1 26.3,10.5 M24.1,9.3 C24.1,9.3 25,8.5 26,9.1 M26,9.1 C25,8.5 24.1,9.3 24.1,9.3 L23.5,10.8 C23.5,10.8 22.8,13.3 24.4,13.4 C26,13.5 26.3,11.1 26.3,10.5 C26.4,9.9 26.9,9.7 26,9.1 L26,9.1 Z" id="Shape" stroke="#000000" stroke-width="0.5" sketch:type="MSShapeGroup"></path>
        <path d="M25.9,9.6 C25.9,8.8 26.6,8.1 27.4,8.1 C28.2,8.1 28.9,8.8 28.9,9.6 C28.9,10.4 28.2,11.1 27.4,11.1 C26.6,11 25.9,10.4 25.9,9.6" id="Shape" stroke="#000000" stroke-width="0.5" fill="#FFFFFF" sketch:type="MSShapeGroup"></path>
        <path d="M21.2,9.6 C21.2,8.8 21.9,8.1 22.7,8.1 C23.5,8.1 24.2,8.8 24.2,9.6 C24.2,10.4 23.5,11.1 22.7,11.1 C21.8,11.1 21.2,10.4 21.2,9.6" id="Shape" stroke="#000000" stroke-width="0.5" fill="#FFFFFF" sketch:type="MSShapeGroup"></path>
        <path d="M18.8,26.6 C18.8,26.6 16.5,26 16.1,27.5 C15.7,29.1 15.7,31.9 15.7,31.9 C15.7,31.9 15.6,33 17.3,33.2 C19,33.4 22.5,33.4 22.5,33.4 C22.5,33.4 23.9,33.5 23.6,32.1 C23.3,30.7 23.3,30.4 23.4,29.8 C23.5,29.2 23.6,27.8 23.6,27.8 C23.6,27.8 24,26.5 22.4,26.6 C21,26.8 18.8,26.6 18.8,26.6" id="Shape" stroke="#000000" stroke-width="0.5" fill="#F1CF00" sketch:type="MSShapeGroup"></path>
        <path d="M19,27.6 C19,27.6 17.7,27.2 17.5,28.3 C17.3,29.4 17.3,31.4 17.3,31.4 C17.3,31.4 17.3,32.2 18.2,32.3 C19.1,32.4 21.1,32.5 21.1,32.5 C21.1,32.5 21.9,32.6 21.7,31.6 C21.5,30.6 21.6,30.4 21.6,29.9 C21.6,29.5 21.7,28.5 21.7,28.5 C21.7,28.5 21.9,27.6 21.1,27.6 C20.3,27.6 19,27.6 19,27.6" id="Shape" stroke="#000000" stroke-width="0.5" fill="#BD6237" sketch:type="MSShapeGroup"></path>
        <path d="M44.1,37.4 L44.9,37.4 C45.3,37.4 45.7,37.5 45.7,38 C45.7,38.6 45.2,38.6 44.7,38.6 L44.1,38.6 L44.1,37.4 L44.1,37.4 Z M43.5,40.7 L44.1,40.7 L44.1,39 L44.7,39 L45.7,40.6 L46.3,40.6 L45.2,38.9 C45.8,38.8 46.2,38.6 46.2,37.9 C46.2,37.2 45.8,36.8 44.9,36.8 L43.5,36.8 L43.5,40.7 L43.5,40.7 Z M42.1,38.8 C42.1,37.3 43.2,36.1 44.8,36.1 C46.3,36.1 47.4,37.3 47.4,38.8 C47.4,40.4 46.3,41.6 44.8,41.6 C43.3,41.5 42.1,40.3 42.1,38.8 L42.1,38.8 Z M41.5,38.8 C41.5,40.6 43,42 44.7,42 C46.5,42 47.9,40.6 47.9,38.8 C47.9,37 46.4,35.6 44.7,35.6 C43,35.6 41.5,37 41.5,38.8 L41.5,38.8 Z" id="Shape" fill="#000000" sketch:type="MSShapeGroup"></path>
        <path d="M59.7,53.9 C60,53.9 60.2,53.6 60.2,53.3 C60.2,53.1 60,52.9 59.8,52.9 C59.5,52.9 59.3,53.2 59.3,53.5 C59.3,53.8 59.5,53.9 59.7,53.9" id="Shape" fill="#000000" sketch:type="MSShapeGroup"></path>
        <path d="M62.2,53.9 C62.5,53.9 62.7,53.6 62.7,53.3 C62.7,53.1 62.5,52.9 62.3,52.9 C62,52.9 61.8,53.2 61.8,53.5 C61.8,53.8 62,53.9 62.2,53.9" id="Shape" fill="#000000" sketch:type="MSShapeGroup"></path>
        <path d="M64.7,53.9 C65,53.9 65.2,53.6 65.2,53.3 C65.2,53.1 65,52.9 64.8,52.9 C64.5,52.9 64.3,53.2 64.3,53.5 C64.3,53.8 64.5,53.9 64.7,53.9" id="Shape" fill="#000000" sketch:type="MSShapeGroup"></path>
        <path d="M70.2,53.1 L70,52.8 C69.5,53.3 69.1,53.5 68.6,53.5 C67.9,53.5 67.4,53 67.4,52.1 C67.4,50.7 68.2,49.7 69.1,49.7 C69.6,49.7 69.9,50 69.9,50.4 C69.9,50.6 69.9,50.8 69.8,51 L70.2,51.1 L70.5,49.4 L70.1,49.3 L70,49.8 C69.8,49.5 69.5,49.3 69,49.3 C68.5,49.3 68,49.5 67.6,49.8 C67,50.4 66.6,51.1 66.6,52 C66.6,53.1 67.3,53.8 68.4,53.8 C69,54 69.6,53.7 70.2,53.1" id="Shape" fill="#000000" sketch:type="MSShapeGroup"></path>
        <path d="M72.7,53.6 C72.1,53.6 71.7,53.2 71.7,52.3 C71.7,51.5 71.9,50.8 72.3,50.3 C72.6,49.9 72.9,49.7 73.3,49.7 C73.9,49.7 74.3,50.1 74.3,51 C74.3,52 73.9,52.8 73.4,53.3 C73.2,53.5 73,53.6 72.7,53.6 M72.8,54 C74.1,54 75.2,52.9 75.2,51.4 C75.2,50.3 74.4,49.5 73.4,49.5 C72.7,49.5 72.1,49.8 71.7,50.3 C71.3,50.8 71.1,51.4 71.1,52 C71,53.2 71.7,54 72.8,54" id="Shape" fill="#000000" sketch:type="MSShapeGroup"></path>
        <path d="M75.6,53.9 L76.5,53.9 L77.5,53.9 L77.6,53.5 L77,53.5 L77.4,51.3 C77.6,50.4 78.3,49.9 78.9,49.9 C79.3,49.9 79.5,50.1 79.5,50.5 C79.5,50.7 79.5,50.9 79.4,51.2 L79,52.9 C79,53.1 78.9,53.3 78.9,53.4 C78.9,53.8 79.1,54 79.5,54 C79.9,54 80.2,53.8 80.5,53.5 L80.3,53.2 C80.1,53.4 79.9,53.5 79.8,53.5 C79.7,53.5 79.6,53.4 79.6,53.3 C79.6,53.2 79.6,53.1 79.7,52.8 L80.2,50.9 C80.2,50.7 80.3,50.5 80.3,50.4 C80.3,49.8 79.9,49.4 79.2,49.4 C78.6,49.4 78.1,49.6 77.6,50.2 L77.8,49.4 C77.4,49.5 76.9,49.5 76.5,49.5 L76.4,49.9 L77,49.9 L76.3,53.5 L75.7,53.5 L75.6,53.9 L75.6,53.9 Z" id="Shape" fill="#000000" sketch:type="MSShapeGroup"></path>
        <path d="M83.6,53.9 L84.5,53.9 L85.5,53.9 L85.6,53.5 L85,53.5 L85.4,51.3 C85.5,50.9 85.6,50.6 85.9,50.3 C86.2,50 86.5,49.9 86.7,49.9 C87.1,49.9 87.3,50.1 87.3,50.4 C87.3,50.5 87.3,50.8 87.2,51.2 L86.7,53.5 L86.1,53.5 L86,53.9 L86.9,53.9 L87.9,53.9 L88,53.5 L87.4,53.5 L87.8,51.3 C88,50.4 88.6,49.9 89.3,49.9 C89.7,49.9 89.9,50.1 89.9,50.5 C89.9,50.7 89.9,50.9 89.8,51.2 L89.4,52.9 C89.4,53.1 89.3,53.3 89.3,53.4 C89.3,53.8 89.5,54 90,54 C90.4,54 90.7,53.8 91,53.5 L90.8,53.2 C90.6,53.4 90.4,53.5 90.3,53.5 C90.2,53.5 90.1,53.4 90.1,53.3 C90.1,53.2 90.1,53.1 90.2,52.8 L90.7,50.9 C90.7,50.7 90.8,50.5 90.8,50.4 C90.8,49.8 90.4,49.4 89.7,49.4 C89.2,49.4 88.7,49.7 88.1,50.2 C88,49.7 87.7,49.4 87.1,49.4 C86.6,49.4 86.1,49.7 85.6,50.2 L85.8,49.4 C85.4,49.5 84.9,49.5 84.5,49.5 L84.4,49.9 L85,49.9 L84.3,53.5 L83.7,53.5 L83.6,53.9 L83.6,53.9 Z" id="Shape" fill="#000000" sketch:type="MSShapeGroup"></path>
        <path d="M95.6,49.6 L95.4,50.3 C95.2,49.8 94.8,49.5 94.2,49.5 C93.6,49.5 93.1,49.7 92.7,50.2 C92.2,50.8 91.9,51.6 91.9,52.3 C91.9,53.4 92.5,54 93.4,54 C94,54 94.5,53.7 94.9,53.2 L94.9,53.4 C94.9,53.8 95,53.9 95.4,53.9 C95.7,53.9 95.9,53.8 96.3,53.6 L96.3,53.2 C96.1,53.3 96,53.4 95.9,53.4 C95.8,53.4 95.7,53.3 95.7,53.2 C95.7,53.1 95.7,52.9 95.8,52.6 L96.4,49.3 L95.6,49.6 L95.6,49.6 Z M95.1,52.2 C95,52.9 94.3,53.5 93.7,53.5 C93.1,53.5 92.7,53 92.7,52.2 C92.7,51.5 92.9,50.8 93.3,50.3 C93.6,49.9 93.9,49.7 94.3,49.7 C94.9,49.7 95.3,50.1 95.3,50.7 L95.3,51 L95.1,52.2 L95.1,52.2 Z" id="Shape" fill="#000000" sketch:type="MSShapeGroup"></path>
        <path d="M100.4,52.2 C100.3,52.9 99.6,53.5 99,53.5 C98.4,53.5 98,53 98,52.2 C98,51.5 98.2,50.8 98.6,50.3 C98.9,49.9 99.2,49.7 99.6,49.7 C100.2,49.7 100.6,50.1 100.6,50.7 L100.6,51 L100.4,52.2 L100.4,52.2 Z M101.2,48.1 L100.8,50.3 C100.6,49.8 100.2,49.5 99.6,49.5 C99,49.5 98.5,49.7 98.1,50.2 C97.6,50.8 97.3,51.6 97.3,52.3 C97.3,53.4 97.9,54 98.8,54 C99.4,54 99.9,53.7 100.3,53.2 L100.3,53.4 C100.3,53.8 100.4,53.9 100.8,53.9 C101.1,53.9 101.3,53.8 101.7,53.6 L101.7,53.2 C101.5,53.3 101.4,53.4 101.3,53.4 C101.2,53.4 101.1,53.3 101.1,53.2 C101.1,53.1 101.1,53 101.2,52.6 L102.2,47.5 C101.8,47.6 101.3,47.6 100.9,47.6 L100.8,47.6 L100.7,48 L101.2,48 L101.2,48.1 Z" id="Shape" fill="#000000" sketch:type="MSShapeGroup"></path>
        <path d="M103.4,51.7 C103.5,50.5 104.1,49.8 104.9,49.8 C105.5,49.8 105.9,50.3 105.9,51.1 L103.4,51.7 L103.4,51.7 Z M106.4,53 L106.1,52.8 C105.7,53.3 105.2,53.6 104.7,53.6 C103.9,53.6 103.4,53.1 103.4,52.2 L106.8,51.4 C106.8,50.2 106.1,49.5 104.9,49.5 C104.3,49.5 103.7,49.8 103.2,50.3 C102.8,50.8 102.5,51.4 102.5,52.1 C102.5,53.3 103.3,54.1 104.4,54.1 C105.2,54 105.9,53.7 106.4,53 L106.4,53 Z" id="Shape" fill="#000000" sketch:type="MSShapeGroup"></path>
        <path d="M108.9,50.3 L109.1,49.4 C108.7,49.5 108.3,49.5 107.9,49.5 L107.8,49.5 L107.7,49.9 L108.3,49.9 L107.6,53.5 L107,53.5 L106.9,53.9 L107.8,53.9 L108.8,53.9 L108.9,53.5 L108.3,53.5 L108.7,51.3 C108.8,50.5 109.2,50.1 109.7,50.1 C109.9,50.1 110,50.1 110.2,50.2 L110.4,49.4 C110.3,49.4 110.1,49.3 110,49.3 C109.8,49.4 109.4,49.7 108.9,50.3" id="Shape" fill="#000000" sketch:type="MSShapeGroup"></path>
        <path d="M114.3,49.6 L114.1,50.3 C113.9,49.8 113.5,49.5 112.9,49.5 C112.3,49.5 111.8,49.7 111.4,50.2 C110.9,50.8 110.6,51.6 110.6,52.3 C110.6,53.4 111.2,54 112.1,54 C112.7,54 113.2,53.7 113.6,53.2 L113.6,53.4 C113.6,53.8 113.7,53.9 114.1,53.9 C114.4,53.9 114.6,53.8 115,53.6 L115,53.2 C114.8,53.3 114.7,53.4 114.6,53.4 C114.5,53.4 114.4,53.3 114.4,53.2 C114.4,53.1 114.4,52.9 114.5,52.6 L115.1,49.3 L114.3,49.6 L114.3,49.6 Z M113.8,52.2 C113.7,52.9 113,53.5 112.4,53.5 C111.8,53.5 111.4,53 111.4,52.2 C111.4,51.5 111.6,50.8 112,50.3 C112.3,49.9 112.6,49.7 113,49.7 C113.6,49.7 114,50.1 114,50.7 L114,51 L113.8,52.2 L113.8,52.2 Z" id="Shape" fill="#000000" sketch:type="MSShapeGroup"></path>
        <path d="M121.6,52.2 C121.5,52.9 120.8,53.5 120.2,53.5 C119.6,53.5 119.2,53 119.2,52.2 C119.2,51.5 119.4,50.8 119.8,50.3 C120.1,49.9 120.4,49.7 120.8,49.7 C121.4,49.7 121.8,50.1 121.8,50.7 L121.8,51 L121.6,52.2 L121.6,52.2 Z M122.4,48.1 L122,50.3 C121.8,49.8 121.4,49.5 120.8,49.5 C120.2,49.5 119.7,49.7 119.3,50.2 C118.8,50.8 118.5,51.6 118.5,52.3 C118.5,53.4 119.1,54 120,54 C120.6,54 121.1,53.7 121.5,53.2 L121.5,53.4 C121.5,53.8 121.6,53.9 122,53.9 C122.3,53.9 122.5,53.8 122.9,53.6 L122.9,53.2 C122.7,53.3 122.6,53.4 122.5,53.4 C122.4,53.4 122.3,53.3 122.3,53.2 C122.3,53.1 122.3,53 122.4,52.6 L123.4,47.5 C123,47.6 122.5,47.6 122.1,47.6 L122,47.6 L121.9,48 L122.4,48 L122.4,48.1 Z" id="Shape" fill="#000000" sketch:type="MSShapeGroup"></path>
        <path d="M124.6,51.7 C124.7,50.5 125.3,49.8 126.1,49.8 C126.7,49.8 127.1,50.3 127.1,51.1 L124.6,51.7 L124.6,51.7 Z M127.6,53 L127.3,52.8 C126.9,53.3 126.4,53.6 125.9,53.6 C125.1,53.6 124.6,53.1 124.6,52.2 L128,51.4 C128,50.2 127.3,49.5 126.1,49.5 C125.5,49.5 124.9,49.8 124.4,50.3 C124,50.8 123.7,51.4 123.7,52.1 C123.7,53.3 124.5,54.1 125.6,54.1 C126.4,54 127.1,53.7 127.6,53 L127.6,53 Z" id="Shape" fill="#000000" sketch:type="MSShapeGroup"></path>
        <path d="M130.7,53.9 L131.6,53.9 L132.6,53.9 L132.7,53.5 L132.1,53.5 L132.5,51.3 C132.7,50.4 133.4,49.9 134,49.9 C134.4,49.9 134.6,50.1 134.6,50.5 C134.6,50.7 134.6,50.9 134.5,51.2 L134.1,52.9 C134.1,53.1 134,53.3 134,53.4 C134,53.8 134.2,54 134.7,54 C135.1,54 135.4,53.8 135.7,53.5 L135.5,53.2 C135.3,53.4 135.1,53.5 135,53.5 C134.9,53.5 134.8,53.4 134.8,53.3 C134.8,53.2 134.8,53.1 134.9,52.8 L135.4,50.9 C135.4,50.7 135.5,50.5 135.5,50.4 C135.5,49.8 135.1,49.4 134.4,49.4 C133.8,49.4 133.3,49.6 132.8,50.2 L133.2,47.6 C132.7,47.7 132.3,47.7 131.8,47.7 L131.7,48.1 L132.3,48.1 L131.3,53.5 L130.7,53.5 L130.7,53.9 L130.7,53.9 Z" id="Shape" fill="#000000" sketch:type="MSShapeGroup"></path>
        <path d="M138.3,53.6 C137.7,53.6 137.3,53.2 137.3,52.3 C137.3,51.5 137.5,50.8 137.9,50.3 C138.2,49.9 138.5,49.7 138.9,49.7 C139.5,49.7 139.9,50.1 139.9,51 C139.9,52 139.5,52.8 139,53.3 C138.8,53.5 138.6,53.6 138.3,53.6 M138.3,54 C139.6,54 140.7,52.9 140.7,51.4 C140.7,50.3 139.9,49.5 138.9,49.5 C138.2,49.5 137.6,49.8 137.2,50.3 C136.8,50.8 136.6,51.4 136.6,52 C136.5,53.2 137.3,54 138.3,54" id="Shape" fill="#000000" sketch:type="MSShapeGroup"></path>
        <path d="M145.2,49.6 L145,50.3 C144.8,49.8 144.4,49.5 143.8,49.5 C143.2,49.5 142.7,49.7 142.3,50.2 C141.8,50.8 141.5,51.6 141.5,52.3 C141.5,53.4 142.1,54 143,54 C143.6,54 144.1,53.8 144.5,53.2 L144.4,53.7 C144.2,54.9 143.9,55.5 143.2,55.5 C142.7,55.5 142.3,55.2 142.1,54.5 L141.5,55 C141.9,55.5 142.4,55.8 143.1,55.8 C144.3,55.8 144.9,55 145.2,53.4 L145.9,49.8 L146.3,49.8 L146.4,49.4 L145.8,49.4 C145.6,49.6 145.4,49.6 145.2,49.6 L145.2,49.6 Z M144.7,52.2 C144.6,52.9 143.9,53.5 143.3,53.5 C142.7,53.5 142.3,53 142.3,52.2 C142.3,51.5 142.5,50.8 142.9,50.3 C143.2,49.9 143.5,49.7 143.9,49.7 C144.5,49.7 144.9,50.1 144.9,50.7 L144.9,51 L144.7,52.2 L144.7,52.2 Z" id="Shape" fill="#000000" sketch:type="MSShapeGroup"></path>
        <path d="M150.5,49.6 L150.3,50.3 C150.1,49.8 149.7,49.5 149.1,49.5 C148.5,49.5 148,49.7 147.6,50.2 C147.1,50.8 146.8,51.6 146.8,52.3 C146.8,53.4 147.4,54 148.3,54 C148.9,54 149.4,53.7 149.8,53.2 L149.8,53.4 C149.8,53.8 149.9,53.9 150.3,53.9 C150.6,53.9 150.8,53.8 151.2,53.6 L151.2,53.2 C151,53.3 150.9,53.4 150.8,53.4 C150.7,53.4 150.6,53.3 150.6,53.2 C150.6,53.1 150.6,52.9 150.7,52.6 L151.3,49.3 L150.5,49.6 L150.5,49.6 Z M150,52.2 C149.9,52.9 149.2,53.5 148.6,53.5 C148,53.5 147.6,53 147.6,52.2 C147.6,51.5 147.8,50.8 148.2,50.3 C148.5,49.9 148.8,49.7 149.2,49.7 C149.8,49.7 150.2,50.1 150.2,50.7 L150.2,51 L150,52.2 L150,52.2 Z" id="Shape" fill="#000000" sketch:type="MSShapeGroup"></path>
        <path d="M153.7,50.3 L153.9,49.4 C153.5,49.5 153.1,49.5 152.7,49.5 L152.6,49.5 L152.5,49.9 L153.1,49.9 L152.4,53.5 L151.8,53.5 L151.7,53.9 L152.6,53.9 L153.6,53.9 L153.7,53.5 L153.1,53.5 L153.5,51.3 C153.6,50.5 154,50.1 154.5,50.1 C154.7,50.1 154.8,50.1 155,50.2 L155.2,49.4 C155.1,49.4 154.9,49.3 154.8,49.3 C154.6,49.4 154.2,49.7 153.7,50.3" id="Shape" fill="#000000" sketch:type="MSShapeGroup"></path>
        <path d="M156.1,52.3 L156.4,52.3 C157,50.6 157.4,49.1 157.5,47.7 L156.6,47.7 C156.5,49.2 156.4,50.7 156.1,52.3 M156,53.9 C156.3,53.9 156.5,53.6 156.5,53.3 C156.5,53.1 156.3,52.9 156.1,52.9 C155.8,52.9 155.6,53.2 155.6,53.5 C155.6,53.8 155.8,53.9 156,53.9" id="Shape" fill="#000000" sketch:type="MSShapeGroup"></path>
        <path d="M164.1,17.6 L164.9,17.6 C165.3,17.6 165.7,17.7 165.7,18.2 C165.7,18.8 165.2,18.8 164.7,18.8 L164.1,18.8 L164.1,17.6 L164.1,17.6 Z M163.5,20.9 L164.1,20.9 L164.1,19.3 L164.7,19.3 L165.7,20.9 L166.3,20.9 L165.2,19.2 C165.8,19.1 166.2,18.9 166.2,18.2 C166.2,17.5 165.8,17.1 164.9,17.1 L163.5,17.1 L163.5,20.9 L163.5,20.9 Z M162.1,19 C162.1,17.5 163.2,16.3 164.8,16.3 C166.3,16.3 167.4,17.5 167.4,19 C167.4,20.6 166.3,21.8 164.8,21.8 C163.3,21.7 162.1,20.6 162.1,19 L162.1,19 Z M161.5,19 C161.5,20.8 163,22.2 164.7,22.2 C166.5,22.2 167.9,20.8 167.9,19 C167.9,17.2 166.4,15.8 164.7,15.8 C163,15.8 161.5,17.2 161.5,19 L161.5,19 Z" id="Shape" fill="#000000" sketch:type="MSShapeGroup"></path>
        <path d="M63,14.4 L84.5,14.4 L84.5,19.7 L69.3,19.7 L69.3,26.7 L82.6,26.7 L82.6,32 L69.3,32 L69.3,44.7 L63,44.7 L63,14.4 Z" id="Shape" fill="#000000" sketch:type="MSShapeGroup"></path>
        <path d="M63,14.4 L84.5,14.4 L84.5,19.7 L69.3,19.7 L69.3,26.7 L82.6,26.7 L82.6,32 L69.3,32 L69.3,44.7 L63,44.7 L63,14.4 Z" id="Shape" sketch:type="MSShapeGroup"></path>
        <path d="M103.7,42 C101.8,44.3 98.9,45.5 95.1,45.5 C91.2,45.5 88.4,44.3 86.5,42 C84.6,39.7 83.7,36.8 83.7,33.5 C83.7,30.3 84.6,27.4 86.5,25.1 C88.4,22.7 91.3,21.5 95.1,21.5 C99,21.5 101.8,22.7 103.7,25.1 C105.6,27.5 106.5,30.3 106.5,33.5 C106.5,36.8 105.6,39.6 103.7,42 M99,38.7 C99.9,37.5 100.4,35.7 100.4,33.5 C100.4,31.2 99.9,29.5 99,28.3 C98.1,27.1 96.8,26.5 95,26.5 C93.3,26.5 92,27.1 91,28.3 C90.1,29.5 89.6,31.2 89.6,33.5 C89.6,35.8 90.1,37.5 91,38.7 C91.9,39.9 93.3,40.5 95,40.5 C96.7,40.5 98.1,39.9 99,38.7" id="Shape" fill="#000000" sketch:type="MSShapeGroup"></path>
        <path d="M103.7,42 C101.8,44.3 98.9,45.5 95.1,45.5 C91.2,45.5 88.4,44.3 86.5,42 C84.6,39.7 83.7,36.8 83.7,33.5 C83.7,30.3 84.6,27.4 86.5,25.1 C88.4,22.7 91.3,21.5 95.1,21.5 C99,21.5 101.8,22.7 103.7,25.1 C105.6,27.5 106.5,30.3 106.5,33.5 C106.5,36.8 105.6,39.6 103.7,42 L103.7,42 Z M99,38.7 C99.9,37.5 100.4,35.7 100.4,33.5 C100.4,31.2 99.9,29.5 99,28.3 C98.1,27.1 96.8,26.5 95,26.5 C93.3,26.5 92,27.1 91,28.3 C90.1,29.5 89.6,31.2 89.6,33.5 C89.6,35.8 90.1,37.5 91,38.7 C91.9,39.9 93.3,40.5 95,40.5 C96.7,40.5 98.1,39.9 99,38.7 L99,38.7 Z" id="Shape" sketch:type="MSShapeGroup"></path>
        <path d="M120.5,21.7 L121,21.7 L121,27.7 C120.6,27.7 120.3,27.6 120,27.6 L119.3,27.6 C116.9,27.6 115.4,28.4 114.5,29.9 C114,30.8 113.8,32.1 113.8,33.9 L113.8,44.6 L107.9,44.6 L107.9,22.1 L113.5,22.1 L113.5,26 C114.4,24.5 115.2,23.5 115.9,22.9 C117,22 118.4,21.5 120.2,21.5 C120.3,21.7 120.4,21.7 120.5,21.7" id="Shape" fill="#000000" sketch:type="MSShapeGroup"></path>
        <path d="M120.5,21.7 L121,21.7 L121,27.7 C120.6,27.7 120.3,27.6 120,27.6 L119.3,27.6 C116.9,27.6 115.4,28.4 114.5,29.9 C114,30.8 113.8,32.1 113.8,33.9 L113.8,44.6 L107.9,44.6 L107.9,22.1 L113.5,22.1 L113.5,26 C114.4,24.5 115.2,23.5 115.9,22.9 C117,22 118.4,21.5 120.2,21.5 C120.3,21.7 120.4,21.7 120.5,21.7 L120.5,21.7 Z" id="Shape" sketch:type="MSShapeGroup"></path>
        <path d="M140.5,13 L134.2,19.2 L130,19.2 L134,13 L140.5,13 L140.5,13 Z M138.1,22.7 C139.6,23.4 140.8,24.5 141.8,26 C142.7,27.3 143.2,28.9 143.5,30.6 C143.6,31.6 143.7,33.1 143.7,35.1 L128.3,35.1 C128.4,37.4 129.1,38.9 130.4,39.8 C131.2,40.4 132.2,40.6 133.3,40.6 C134.5,40.6 135.5,40.3 136.2,39.6 C136.6,39.2 137,38.7 137.3,38.1 L143.3,38.1 C143.1,39.4 142.5,40.8 141.2,42.2 C139.3,44.4 136.6,45.5 133.1,45.5 C130.2,45.5 127.7,44.6 125.5,42.7 C123.3,40.9 122.2,37.9 122.2,33.7 C122.2,29.8 123.2,26.8 125.1,24.8 C127.1,22.7 129.6,21.7 132.8,21.7 C134.9,21.6 136.6,22 138.1,22.7 L138.1,22.7 Z M129.9,27.7 C129.2,28.6 128.7,29.7 128.5,31.2 L137.6,31.2 C137.5,29.6 137,28.5 136.2,27.7 C135.4,26.9 134.3,26.5 133.1,26.5 C131.7,26.5 130.6,26.9 129.9,27.7 L129.9,27.7 Z" id="Shape" fill="#000000" sketch:type="MSShapeGroup"></path>
        <path d="M140.5,13 L134.2,19.2 L130,19.2 L134,13 L140.5,13 L140.5,13 Z M138.1,22.7 C139.6,23.4 140.8,24.5 141.8,26 C142.7,27.3 143.2,28.9 143.5,30.6 C143.6,31.6 143.7,33.1 143.7,35.1 L128.3,35.1 C128.4,37.4 129.1,38.9 130.4,39.8 C131.2,40.4 132.2,40.6 133.3,40.6 C134.5,40.6 135.5,40.3 136.2,39.6 C136.6,39.2 137,38.7 137.3,38.1 L143.3,38.1 C143.1,39.4 142.5,40.8 141.2,42.2 C139.3,44.4 136.6,45.5 133.1,45.5 C130.2,45.5 127.7,44.6 125.5,42.7 C123.3,40.9 122.2,37.9 122.2,33.7 C122.2,29.8 123.2,26.8 125.1,24.8 C127.1,22.7 129.6,21.7 132.8,21.7 C134.9,21.6 136.6,22 138.1,22.7 L138.1,22.7 Z M129.9,27.7 C129.2,28.6 128.7,29.7 128.5,31.2 L137.6,31.2 C137.5,29.6 137,28.5 136.2,27.7 C135.4,26.9 134.3,26.5 133.1,26.5 C131.7,26.5 130.6,26.9 129.9,27.7 L129.9,27.7 Z" id="Shape" sketch:type="MSShapeGroup"></path>
        <path d="M150.1,37.5 C150.2,38.5 150.5,39.3 150.9,39.7 C151.6,40.5 153,40.9 154.9,40.9 C156.1,40.9 157,40.7 157.6,40.4 C158.3,40.1 158.6,39.5 158.6,38.9 C158.6,38.2 158.3,37.7 157.8,37.4 C157.3,37.1 155.2,36.5 151.7,35.6 C149.2,35 147.4,34.2 146.3,33.2 C145.3,32.3 144.7,30.9 144.7,29.2 C144.7,27.1 145.5,25.3 147.1,23.9 C148.7,22.4 151,21.7 154,21.7 C156.8,21.7 159.1,22.3 160.8,23.4 C162.6,24.5 163.6,26.4 163.8,29.2 L157.9,29.2 C157.8,28.4 157.6,27.8 157.3,27.4 C156.7,26.6 155.6,26.2 154,26.2 C152.7,26.2 151.8,26.4 151.3,26.8 C150.8,27.2 150.5,27.7 150.5,28.2 C150.5,28.9 150.8,29.4 151.4,29.7 C152,30 154,30.6 157.5,31.3 C159.8,31.8 161.6,32.7 162.8,33.8 C164,34.9 164.5,36.3 164.5,38 C164.5,40.2 163.7,42 162,43.5 C160.4,44.9 157.8,45.6 154.3,45.6 C150.8,45.6 148.2,44.9 146.5,43.4 C144.8,41.9 144,40 144,37.7 L150.1,37.7 L150.1,37.5 Z" id="Shape" fill="#000000" sketch:type="MSShapeGroup"></path>
        <path d="M150.1,37.5 C150.2,38.5 150.5,39.3 150.9,39.7 C151.6,40.5 153,40.9 154.9,40.9 C156.1,40.9 157,40.7 157.6,40.4 C158.3,40.1 158.6,39.5 158.6,38.9 C158.6,38.2 158.3,37.7 157.8,37.4 C157.3,37.1 155.2,36.5 151.7,35.6 C149.2,35 147.4,34.2 146.3,33.2 C145.3,32.3 144.7,30.9 144.7,29.2 C144.7,27.1 145.5,25.3 147.1,23.9 C148.7,22.4 151,21.7 154,21.7 C156.8,21.7 159.1,22.3 160.8,23.4 C162.6,24.5 163.6,26.4 163.8,29.2 L157.9,29.2 C157.8,28.4 157.6,27.8 157.3,27.4 C156.7,26.6 155.6,26.2 154,26.2 C152.7,26.2 151.8,26.4 151.3,26.8 C150.8,27.2 150.5,27.7 150.5,28.2 C150.5,28.9 150.8,29.4 151.4,29.7 C152,30 154,30.6 157.5,31.3 C159.8,31.8 161.6,32.7 162.8,33.8 C164,34.9 164.5,36.3 164.5,38 C164.5,40.2 163.7,42 162,43.5 C160.4,44.9 157.8,45.6 154.3,45.6 C150.8,45.6 148.2,44.9 146.5,43.4 C144.8,41.9 144,40 144,37.7 L150.1,37.7 L150.1,37.5 Z" id="Shape" sketch:type="MSShapeGroup"></path>
        <path d="M61.9,13 L83.4,13 L83.4,18.3 L68.2,18.3 L68.2,25.3 L81.5,25.3 L81.5,30.6 L68.2,30.6 L68.2,43.3 L61.9,43.3 L61.9,13 Z" id="Shape" fill="#F1CF00" sketch:type="MSShapeGroup"></path>
        <path d="M61.9,13 L83.4,13 L83.4,18.3 L68.2,18.3 L68.2,25.3 L81.5,25.3 L81.5,30.6 L68.2,30.6 L68.2,43.3 L61.9,43.3 L61.9,13 Z" id="Shape" sketch:type="MSShapeGroup"></path>
        <path d="M102.6,40.6 C100.7,42.9 97.8,44.1 94,44.1 C90.1,44.1 87.3,42.9 85.4,40.6 C83.5,38.3 82.6,35.4 82.6,32.1 C82.6,28.9 83.5,26 85.4,23.7 C87.3,21.4 90.2,20.1 94,20.1 C97.9,20.1 100.7,21.3 102.6,23.7 C104.5,26.1 105.4,28.9 105.4,32.1 C105.4,35.4 104.5,38.3 102.6,40.6 M97.9,37.4 C98.8,36.2 99.3,34.4 99.3,32.2 C99.3,29.9 98.8,28.2 97.9,27 C97,25.8 95.7,25.2 93.9,25.2 C92.2,25.2 90.9,25.8 89.9,27 C89,28.2 88.5,29.9 88.5,32.2 C88.5,34.5 89,36.2 89.9,37.4 C90.8,38.6 92.2,39.2 93.9,39.2 C95.6,39.2 96.9,38.6 97.9,37.4" id="Shape" fill="#F1CF00" sketch:type="MSShapeGroup"></path>
        <path d="M102.6,40.6 C100.7,42.9 97.8,44.1 94,44.1 C90.1,44.1 87.3,42.9 85.4,40.6 C83.5,38.3 82.6,35.4 82.6,32.1 C82.6,28.9 83.5,26 85.4,23.7 C87.3,21.4 90.2,20.1 94,20.1 C97.9,20.1 100.7,21.3 102.6,23.7 C104.5,26.1 105.4,28.9 105.4,32.1 C105.4,35.4 104.5,38.3 102.6,40.6 L102.6,40.6 Z M97.9,37.4 C98.8,36.2 99.3,34.4 99.3,32.2 C99.3,29.9 98.8,28.2 97.9,27 C97,25.8 95.7,25.2 93.9,25.2 C92.2,25.2 90.9,25.8 89.9,27 C89,28.2 88.5,29.9 88.5,32.2 C88.5,34.5 89,36.2 89.9,37.4 C90.8,38.6 92.2,39.2 93.9,39.2 C95.6,39.2 96.9,38.6 97.9,37.4 L97.9,37.4 Z" id="Shape" sketch:type="MSShapeGroup"></path>
        <path d="M119.3,20.4 L119.8,20.4 L119.8,26.4 C119.4,26.4 119.1,26.3 118.8,26.3 L118.1,26.3 C115.7,26.3 114.1,27.1 113.3,28.6 C112.8,29.5 112.6,30.8 112.6,32.6 L112.6,43.3 L106.7,43.3 L106.7,20.8 L112.3,20.8 L112.3,24.7 C113.2,23.2 114,22.2 114.7,21.6 C115.8,20.7 117.2,20.2 119,20.2 C119.2,20.3 119.3,20.3 119.3,20.4" id="Shape" fill="#F1CF00" sketch:type="MSShapeGroup"></path>
        <path d="M119.3,20.4 L119.8,20.4 L119.8,26.4 C119.4,26.4 119.1,26.3 118.8,26.3 L118.1,26.3 C115.7,26.3 114.1,27.1 113.3,28.6 C112.8,29.5 112.6,30.8 112.6,32.6 L112.6,43.3 L106.7,43.3 L106.7,20.8 L112.3,20.8 L112.3,24.7 C113.2,23.2 114,22.2 114.7,21.6 C115.8,20.7 117.2,20.2 119,20.2 C119.2,20.3 119.3,20.3 119.3,20.4 L119.3,20.4 Z" id="Shape" sketch:type="MSShapeGroup"></path>
        <path d="M139.4,11.7 L133.1,17.9 L128.9,17.9 L132.9,11.7 L139.4,11.7 L139.4,11.7 Z M137,21.3 C138.5,22 139.7,23.1 140.7,24.6 C141.6,25.9 142.1,27.5 142.4,29.2 C142.6,30.2 142.6,31.7 142.6,33.7 L127.2,33.7 C127.3,36 128,37.5 129.3,38.4 C130.1,39 131.1,39.2 132.2,39.2 C133.4,39.2 134.4,38.9 135.1,38.2 C135.5,37.8 135.9,37.3 136.2,36.7 L142.2,36.7 C142,38 141.4,39.4 140.1,40.8 C138.2,43 135.5,44.1 132,44.1 C129.1,44.1 126.6,43.2 124.4,41.3 C122.2,39.5 121.1,36.5 121.1,32.3 C121.1,28.4 122.1,25.4 124,23.4 C126,21.3 128.5,20.3 131.7,20.3 C133.8,20.3 135.5,20.6 137,21.3 L137,21.3 Z M128.8,26.4 C128.1,27.3 127.6,28.4 127.4,29.9 L136.5,29.9 C136.4,28.3 135.9,27.2 135.1,26.4 C134.3,25.6 133.2,25.2 132,25.2 C130.6,25.1 129.5,25.5 128.8,26.4 L128.8,26.4 Z" id="Shape" fill="#F1CF00" sketch:type="MSShapeGroup"></path>
        <path d="M139.4,11.7 L133.1,17.9 L128.9,17.9 L132.9,11.7 L139.4,11.7 L139.4,11.7 Z M137,21.3 C138.5,22 139.7,23.1 140.7,24.6 C141.6,25.9 142.1,27.5 142.4,29.2 C142.6,30.2 142.6,31.7 142.6,33.7 L127.2,33.7 C127.3,36 128,37.5 129.3,38.4 C130.1,39 131.1,39.2 132.2,39.2 C133.4,39.2 134.4,38.9 135.1,38.2 C135.5,37.8 135.9,37.3 136.2,36.7 L142.2,36.7 C142,38 141.4,39.4 140.1,40.8 C138.2,43 135.5,44.1 132,44.1 C129.1,44.1 126.6,43.2 124.4,41.3 C122.2,39.5 121.1,36.5 121.1,32.3 C121.1,28.4 122.1,25.4 124,23.4 C126,21.3 128.5,20.3 131.7,20.3 C133.8,20.3 135.5,20.6 137,21.3 L137,21.3 Z M128.8,26.4 C128.1,27.3 127.6,28.4 127.4,29.9 L136.5,29.9 C136.4,28.3 135.9,27.2 135.1,26.4 C134.3,25.6 133.2,25.2 132,25.2 C130.6,25.1 129.5,25.5 128.8,26.4 L128.8,26.4 Z" id="Shape" sketch:type="MSShapeGroup"></path>
        <path d="M149,36.2 C149.1,37.2 149.4,38 149.8,38.4 C150.5,39.2 151.9,39.6 153.8,39.6 C155,39.6 155.9,39.4 156.5,39.1 C157.2,38.8 157.5,38.2 157.5,37.6 C157.5,36.9 157.2,36.4 156.7,36.1 C156.2,35.8 154.1,35.2 150.6,34.3 C148.1,33.7 146.3,32.9 145.2,31.9 C144.2,31 143.6,29.6 143.6,27.9 C143.6,25.8 144.4,24 146,22.6 C147.6,21.1 149.9,20.4 152.9,20.4 C155.7,20.4 158,21 159.7,22.1 C161.5,23.2 162.5,25.1 162.7,27.9 L156.8,27.9 C156.7,27.1 156.5,26.5 156.2,26.1 C155.6,25.3 154.5,24.9 152.9,24.9 C151.6,24.9 150.7,25.1 150.2,25.5 C149.7,25.9 149.4,26.4 149.4,26.9 C149.4,27.6 149.7,28.1 150.3,28.4 C150.9,28.7 152.9,29.3 156.4,30 C158.7,30.6 160.5,31.4 161.7,32.5 C162.9,33.6 163.4,35 163.4,36.7 C163.4,38.9 162.6,40.7 160.9,42.2 C159.3,43.6 156.7,44.3 153.2,44.3 C149.7,44.3 147.1,43.6 145.4,42.1 C143.7,40.6 142.9,38.7 142.9,36.4 L149,36.4 L149,36.2 Z" id="Shape" fill="#F1CF00" sketch:type="MSShapeGroup"></path>
        <path d="M149,36.2 C149.1,37.2 149.4,38 149.8,38.4 C150.5,39.2 151.9,39.6 153.8,39.6 C155,39.6 155.9,39.4 156.5,39.1 C157.2,38.8 157.5,38.2 157.5,37.6 C157.5,36.9 157.2,36.4 156.7,36.1 C156.2,35.8 154.1,35.2 150.6,34.3 C148.1,33.7 146.3,32.9 145.2,31.9 C144.2,31 143.6,29.6 143.6,27.9 C143.6,25.8 144.4,24 146,22.6 C147.6,21.1 149.9,20.4 152.9,20.4 C155.7,20.4 158,21 159.7,22.1 C161.5,23.2 162.5,25.1 162.7,27.9 L156.8,27.9 C156.7,27.1 156.5,26.5 156.2,26.1 C155.6,25.3 154.5,24.9 152.9,24.9 C151.6,24.9 150.7,25.1 150.2,25.5 C149.7,25.9 149.4,26.4 149.4,26.9 C149.4,27.6 149.7,28.1 150.3,28.4 C150.9,28.7 152.9,29.3 156.4,30 C158.7,30.6 160.5,31.4 161.7,32.5 C162.9,33.6 163.4,35 163.4,36.7 C163.4,38.9 162.6,40.7 160.9,42.2 C159.3,43.6 156.7,44.3 153.2,44.3 C149.7,44.3 147.1,43.6 145.4,42.1 C143.7,40.6 142.9,38.7 142.9,36.4 L149,36.4 L149,36.2 Z" id="Shape" sketch:type="MSShapeGroup"></path>
    </g>
</svg>