<?xml version="1.0" encoding="UTF-8" standalone="no"?>
<svg width="168px" height="56px" viewBox="0 0 168 56" version="1.1" xmlns="http://www.w3.org/2000/svg" xmlns:xlink="http://www.w3.org/1999/xlink" xmlns:sketch="http://www.bohemiancoding.com/sketch/ns">
    <title>logo_bn.svg</title>
    <description>Created with Sketch (http://www.bohemiancoding.com/sketch)</description>
    <defs></defs>
    <g id="Page-1" stroke="none" stroke-width="1" fill="none" fill-rule="evenodd" sketch:type="MSPage">
        <g id="logo@2x" sketch:type="MSLayerGroup" transform="translate(0.000000, 1.000000)">
            <g id="Page-1" sketch:type="MSShapeGroup">
                <path d="M10.3,24.1 C10.3,24.1 18.1,27.6 24.4,26.7 C34.5,26.1 41.7,21.6 41.7,21.6 L43.8,25.2 C43.8,25.2 36.6,31.7 21.5,32 C15.1,32.9 7.4,29.2 7.4,29.2 C7.4,29.2 7.8,26.4 8,26 C8.6,25.1 10.3,24.1 10.3,24.1 L10.3,24.1 L10.3,24.1 Z" id="Shape" stroke="#FFFFFF" stroke-width="0.355"></path>
                <path d="M7.5,27.5 L6.3,30.2 C6.3,30.2 5.5,31 6.2,31.9 C6.6,32.7 7.5,33.5 7.5,33.5 M5.4,27.8 C5.4,27.8 3.4,30.3 4,31.9" id="Shape" stroke="#FFFFFF" stroke-width="0.355"></path>
                <path d="M40.8,15.6 C40.8,15.6 41.1,19.8 42.7,20.9" id="Shape" stroke="#FFFFFF" stroke-width="0.355"></path>
                <path d="M36,13.6 L36,13.6 C36,14 35.7,14.3 35.3,14.3 C34.9,14.3 34.6,14 34.6,13.6 C34.6,13.2 34.9,12.9 35.3,12.9 C35.7,12.9 36,13.2 36,13.6 M36.1,13.6 C36.1,13.1 35.7,12.7 35.2,12.7 C34.7,12.7 34.3,13.1 34.3,13.6 C34.3,14.1 34.7,14.5 35.2,14.5 C35.7,14.5 36.1,14.1 36.1,13.6" id="Shape" stroke="#979797" fill="#F2DAA2"></path>
                <path d="M35.7,13.6 L35.7,13.6 C35.7,13.9 35.5,14.1 35.2,14.1 C34.9,14.1 34.7,13.9 34.7,13.6 C34.7,13.3 34.9,13.1 35.2,13.1 C35.5,13.1 35.7,13.3 35.7,13.6 M35.9,13.6 C35.9,13.2 35.6,12.9 35.2,12.9 C34.8,12.9 34.5,13.2 34.5,13.6 C34.5,14 34.8,14.3 35.2,14.3 C35.6,14.3 35.9,14 35.9,13.6" id="Shape" stroke="#979797" fill="#ECCBA0"></path>
                <path d="M35.5,13.6 L35.5,13.6 C35.5,13.8 35.4,13.9 35.2,13.9 C35,13.9 34.9,13.8 34.9,13.6 C34.9,13.4 35,13.3 35.2,13.3 C35.4,13.3 35.5,13.4 35.5,13.6 M35.7,13.6 C35.7,13.3 35.5,13.1 35.2,13.1 C34.9,13.1 34.7,13.3 34.7,13.6 C34.7,13.9 34.9,14.1 35.2,14.1 C35.5,14.1 35.7,13.9 35.7,13.6" id="Shape" stroke="#979797" fill="#E6BA9D"></path>
                <path d="M35.3,13.6 L35.3,13.6 C35.3,13.7 35.3,13.7 35.2,13.7 C35.1,13.7 35.1,13.7 35.1,13.6 C35.1,13.5 35.1,13.5 35.2,13.5 C35.3,13.5 35.3,13.5 35.3,13.6 M35.5,13.6 C35.5,13.4 35.4,13.3 35.2,13.3 C35,13.3 34.9,13.4 34.9,13.6 C34.9,13.8 35,13.9 35.2,13.9 C35.4,13.9 35.5,13.7 35.5,13.6" id="Shape" stroke="#979797" fill="#E0AA9A"></path>
                <path d="M35.3,13.6 C35.3,13.5 35.3,13.5 35.2,13.5 C35.1,13.5 35.1,13.5 35.1,13.6 C35.1,13.7 35.1,13.7 35.2,13.7 C35.3,13.7 35.3,13.6 35.3,13.6" id="Shape" stroke="#979797" fill="#DB9A97"></path>
                <path d="M25.7,6.5 C25.7,5.3 26.5,4.4 27.5,4.4 C28.5,4.4 29,5.4 29,6.5 C29,7.7 28.5,8.6 27.5,8.6 C26.5,8.6 25.7,7.7 25.7,6.5" id="Shape" stroke="#979797" fill="#FFFFFF"></path>
                <path d="M25.7,6.5 C25.7,5.3 26.5,4.4 27.5,4.4 C28.5,4.4 29,5.4 29,6.5 C29,7.7 28.5,8.6 27.5,8.6 C26.5,8.6 25.7,7.7 25.7,6.5 L25.7,6.5 L25.7,6.5 Z" id="Shape" stroke="#FFFFFF" stroke-width="0.355"></path>
                <path d="M27.9,5.2 C28.1,5.4 28.2,5.7 28.2,5.9 C28.2,6.6 27.8,6.9 26.8,7.2 C26.4,7.3 26,7.5 25.7,7.3 C25.7,7.3 25.6,6.3 25.7,5.6 L27.9,5.2 L27.9,5.2 Z" id="Shape" stroke="#979797" fill="#000000"></path>
                <path d="M27.9,5.2 C28.1,5.4 28.2,5.7 28.2,5.9 C28.2,6.6 27.8,6.9 26.8,7.2 C26.4,7.3 26,7.5 25.7,7.3 C25.7,7.3 25.6,6.3 25.7,5.6 L27.9,5.2 L27.9,5.2 Z" id="Shape" stroke="#FFFFFF" stroke-width="0.355"></path>
                <path d="M25.7,6.6 C25.8,5.5 26.5,4.3 27.5,4.3 C28.5,4.3 29,5.4 29,6.4 C29,6.5 28.3,6.2 27.3,6.2 C26.3,6.3 25.6,6.7 25.7,6.6" id="Shape" stroke="#979797" fill="#F2DAA2"></path>
                <path d="M25.7,6.6 C25.8,5.5 26.5,4.3 27.5,4.3 C28.5,4.3 29,5.4 29,6.4 C29,6.5 28.3,6.2 27.3,6.2 C26.3,6.3 25.6,6.7 25.7,6.6 L25.7,6.6 L25.7,6.6 Z" id="Shape" stroke="#FFFFFF" stroke-width="0.355"></path>
                <path d="M23.6,2.2 C23.2,2.2 22.1,2.4 21.7,3.2 C21.3,3.9 21.1,4.4 21.4,4.7 C21.7,5.1 22.3,5.3 22.8,4.6 C23.3,3.9 23.4,3.2 23.8,3.1 C24.2,3 25.3,2.1 23.6,2.2" id="Shape" stroke="#979797" fill="#F2DAA2"></path>
                <path d="M23.6,2.2 C23.2,2.2 22.1,2.4 21.7,3.2 C21.3,3.9 21.1,4.4 21.4,4.7 C21.7,5.1 22.3,5.3 22.8,4.6 C23.3,3.9 23.4,3.2 23.8,3.1 C24.2,3 25.3,2.1 23.6,2.2 L23.6,2.2 L23.6,2.2 Z" id="Shape" stroke="#FFFFFF" stroke-width="0.355"></path>
                <path d="M28.7,2.9 C28.7,2.9 27.7,2.3 27.2,2.3 C26.7,2.3 26.1,3 26.6,3.4 C27.1,3.8 27.9,4.5 28,4.6 C28.1,4.7 28.7,5.3 28.9,5.2 C29.1,5.1 29.9,4.3 29.6,4 C29.3,3.6 28.7,2.9 28.7,2.9" id="Shape" stroke="#979797" fill="#F2DAA2"></path>
                <path d="M28.7,2.9 C28.7,2.9 27.7,2.3 27.2,2.3 C26.7,2.3 26.1,3 26.6,3.4 C27.1,3.8 27.9,4.5 28,4.6 C28.1,4.7 28.7,5.3 28.9,5.2 C29.1,5.1 29.9,4.3 29.6,4 C29.3,3.6 28.7,2.9 28.7,2.9 L28.7,2.9 L28.7,2.9 Z" id="Shape" stroke="#FFFFFF" stroke-width="0.355"></path>
                <path d="M21.4,6.6 C21.4,5.4 22.2,4.5 23.2,4.5 C24.2,4.5 24.7,5.5 24.7,6.6 C24.7,7.8 24.2,8.7 23.2,8.7 C22.2,8.7 21.4,7.7 21.4,6.6" id="Shape" stroke="#979797" fill="#FFFFFF"></path>
                <path d="M21.4,6.6 C21.4,5.4 22.2,4.5 23.2,4.5 C24.2,4.5 24.7,5.5 24.7,6.6 C24.7,7.8 24.2,8.7 23.2,8.7 C22.2,8.7 21.4,7.7 21.4,6.6 L21.4,6.6 L21.4,6.6 Z" id="Shape" stroke="#FFFFFF" stroke-width="0.355"></path>
                <path d="M23.6,5.2 C23.8,5.4 23.9,5.7 23.9,5.9 C23.9,6.6 23.5,6.9 22.5,7.2 C22.1,7.3 21.7,7.5 21.4,7.3 C21.4,7.3 21.3,6.3 21.4,5.6 L23.6,5.2 L23.6,5.2 Z" id="Shape" stroke="#979797" fill="#000000"></path>
                <path d="M23.6,5.2 C23.8,5.4 23.9,5.7 23.9,5.9 C23.9,6.6 23.5,6.9 22.5,7.2 C22.1,7.3 21.7,7.5 21.4,7.3 C21.4,7.3 21.3,6.3 21.4,5.6 L23.6,5.2 L23.6,5.2 Z" id="Shape" stroke="#FFFFFF" stroke-width="0.355"></path>
                <path d="M21.4,6.7 C21.5,5.6 22.2,4.4 23.2,4.4 C24.2,4.4 24.7,5.5 24.7,6.5 C24.7,6.6 24,6.3 23,6.3 C22,6.4 21.4,6.7 21.4,6.7" id="Shape" stroke="#979797" fill="#F2DAA2"></path>
                <path d="M21.4,6.7 C21.5,5.6 22.2,4.4 23.2,4.4 C24.2,4.4 24.7,5.5 24.7,6.5 C24.7,6.6 24,6.3 23,6.3 C22,6.4 21.4,6.7 21.4,6.7 L21.4,6.7 L21.4,6.7 Z" id="Shape" stroke="#FFFFFF" stroke-width="0.355"></path>
                <path d="M27.9,10.2 C27.9,10.2 28.4,12.4 30.2,12.1 C32,11.8 32.4,11.2 32.7,10.5 L27.9,10.2 L27.9,10.2 Z M19.9,11.8 C19.9,11.8 21,12.2 21.1,13 C21.3,13.8 23,15 24.9,14.7 C26.8,14.5 28.5,14.6 29.6,12.1 L19.9,11.8 L19.9,11.8 Z M18.3,9.7 C18.3,9.7 18.2,11.8 19.9,11.7 C21.5,11.6 21.7,9.8 21.7,9.8 L18.3,9.7 L18.3,9.7 Z M27.7,9.5 C27.7,7.9 28.8,6.6 30.3,6.6 C31.8,6.6 32.5,7.9 32.5,9.4 C32.5,11 31.7,12.3 30.3,12.3 C28.9,12.3 27.7,11.1 27.7,9.5 L27.7,9.5 L27.7,9.5 Z" id="Shape" stroke="#FFFFFF" stroke-width="0.355"></path>
                <path d="M23.3,9.7 C23.3,9.7 22.4,12.5 24.4,12.6 C26.3,12.7 26.6,9.9 26.7,9.3 L23.3,9.7 L23.3,9.7 Z M24,8.1 C24,8.1 25.1,7.2 26.2,7.9 L24,8.1 L24,8.1 Z M26.2,7.9 C25.1,7.2 24,8.1 24,8.1 L23.3,9.8 C23.3,9.8 22.4,12.6 24.4,12.7 C26.3,12.8 26.6,10 26.7,9.4 C26.6,8.8 27.3,8.5 26.2,7.9 L26.2,7.9 L26.2,7.9 Z" id="Shape" stroke="#FFFFFF" stroke-width="0.355"></path>
                <path d="M25.5,8.6 C25.5,7.6 26.3,6.8 27.3,6.8 C28.3,6.8 29.1,7.6 29.1,8.6 C29.1,9.6 28.3,10.4 27.3,10.4 C26.3,10.4 25.5,9.6 25.5,8.6" id="Shape" stroke="#979797" fill="#FFFFFF"></path>
                <path d="M20.8,8.6 C20.8,7.6 21.6,6.8 22.6,6.8 C23.6,6.8 24.4,7.6 24.4,8.6 C24.4,9.6 23.6,10.4 22.6,10.4 C21.6,10.4 20.8,9.7 20.8,8.6" id="Shape" stroke="#979797" fill="#FFFFFF"></path>
                <path d="M18.7,25.3 C18.7,25.3 16.2,24.6 15.8,26.3 C15.4,28 15.4,31.2 15.4,31.2 C15.4,31.2 15.3,32.5 17.2,32.7 C19.1,32.9 22.9,33 22.9,33 C22.9,33 24.4,33.2 24.1,31.6 C23.8,30 23.8,29.7 23.9,29 C24,28.3 24.1,26.8 24.1,26.8 C24.1,26.8 24.5,25.3 22.8,25.4 C21.1,25.5 18.7,25.3 18.7,25.3" id="Shape" stroke="#979797" fill="#FEEE00"></path>
                <path d="M18.7,25.3 C18.7,25.3 16.2,24.6 15.8,26.3 C15.4,28 15.4,31.2 15.4,31.2 C15.4,31.2 15.3,32.5 17.2,32.7 C19.1,32.9 22.9,33 22.9,33 C22.9,33 24.4,33.2 24.1,31.6 C23.8,30 23.8,29.7 23.9,29 C24,28.3 24.1,26.8 24.1,26.8 C24.1,26.8 24.5,25.3 22.8,25.4 C21.1,25.5 18.7,25.3 18.7,25.3 L18.7,25.3 L18.7,25.3 Z" id="Shape" stroke="#FFFFFF" stroke-width="0.355"></path>
                <path d="M18.9,26.3 C18.9,26.3 17.4,25.8 17.2,27.1 C17,28.4 16.9,30.7 16.9,30.7 C16.9,30.7 16.8,31.6 17.9,31.8 C19,31.9 21.2,32 21.2,32 C21.2,32 22.1,32.1 21.9,31 C21.7,29.8 21.7,29.6 21.8,29.1 C21.9,28.6 21.9,27.5 21.9,27.5 C21.9,27.5 22.1,26.4 21.2,26.5 C20.3,26.4 18.9,26.3 18.9,26.3 L18.9,26.3 L18.9,26.3 Z" id="Shape" stroke="#FFFFFF" stroke-width="0.355"></path>
                <path d="M43.2,7.2 L42.4,4.8 C42.4,4.8 42,3 42.9,2.7 C43.8,2.4 43.8,3.6 44.2,4.2 C44.6,4.8 45.4,6.9 45.5,7.1 C45.7,7.2 43.2,7.2 43.2,7.2" id="Shape" stroke="#000000" stroke-width="0.5" fill="#D4D4D4"></path>
                <path d="M46.6,9.5 C46.5,9.2 47.3,7.8 45.4,6.7 C42.8,6.7 42.4,6.9 42,7.1 C41.2,7.3 40.7,7.9 40.7,7.9 C40.7,7.9 38.2,7.3 39.7,11.5 C40,11.8 39.5,13.1 40.7,14.5 C41.2,14.8 41.2,15.7 41.2,15.7 L44.5,17.3 L46.5,15.6 C46.5,15.6 47.9,11 46.6,9.5 Z" id="Shape" stroke="#000000" stroke-width="0.5" fill="#D4D4D4"></path>
                <path d="M43.9,9.9 C43.9,9.9 41.6,9.9 41.8,12.1 C42.1,13.1 42.8,13.3 43.2,12.9 C43.6,12.6 43.7,11.6 43.6,11.4 C43.6,11.7 44.4,12.5 45.2,11.6 M40.7,10.4 C40.7,10.4 40.3,11.7 41.7,12 M40.7,7.9 C40.7,7.9 39.5,9.3 40.7,10.5 C40.7,9.3 43.3,7.6 44.9,8.4" id="mano" stroke="#000000" stroke-width="0.5"></path>
                <path d="M3.6,33.5 C3.6,33.5 7.4,36 8.4,36.7 C9.4,37.4 13,40.3 14.5,40.8 C17.1,41.7 17.4,45.2 15.7,45.5 C15.1,45.9 14.2,46.3 13.2,46.7 C10.7,46.8 10.5,47.6 9.2,47.7 C7.6,48.1 5.9,48.6 2.3,49.8 C0.4,50.6 -1.9,53.9 2.7,54.5 C5,54.8 5.2,54.9 6,54.8 C7.3,54.8 8.9,54.2 10,53.9 C11.1,53.7 14.2,53.4 15.1,53.3 C16,53.2 18.8,51.1 20.6,50.5 C21.4,49.9 23.7,48.9 25,48.2 C25.5,47.9 26.5,46.8 25.1,45.1 C24.1,44.3 22.1,43.1 23.3,41.2 C24,41 25.6,40.2 27.7,40.7 C28.7,41.7 29.2,42 30.4,42.9 C31.8,44.2 31.7,46.9 32.4,47.4 C32.8,47.6 33.6,48.3 35.4,48.6 C36.8,48.9 38.8,49.9 40.6,50.7 C41.9,51.3 42.1,51.7 43.9,52.2 C45.6,52.7 48,53.4 48.6,53.6 C49.2,53.8 49.6,53.8 51.2,54 C52.8,53.7 53.7,53.6 54.6,52.7 C55.3,51.5 55.7,51.6 55.1,50 C53.1,48.8 53.4,48 48.6,46.3 C47.2,45.9 46,45.4 44.5,44.9 C42.7,44.5 39.5,42.8 39.5,42.8 C39.5,42.8 37.1,42 36.6,40.9 C36,39.7 36.9,38.1 37.9,37.4 C39,36.8 39.7,34.6 40.9,33.8 C41.6,33.2 42.1,32.6 42.1,32.6 L43.2,31.1 L45.7,27.3 L34.6,29.5 L14.3,30 L3.6,33.5 L3.6,33.5 Z" id="piernas" fill="#000000"></path>
                <path d="M3.4,33.6 C6.2,35.4 12.6,37.1 13.3,37.1 C14,37.1 18,38.7 20.2,32.4 C21.1,36.6 23.1,39.5 27.6,38.7 C30.2,39.7 37.5,34.9 40.8,32.4 C42.9,30.6 45.8,27.2 46.3,26 C46.8,24.8 44.8,20 44.8,20 L35.2,20.4 L7.3,17.7 L3.7,27.1 C3.7,27.1 0.6,31.8 3.4,33.6 Z" id="falda" stroke="#000000" stroke-width="0.5" fill="#D4D4D4"></path>
                <path d="M10.6,24.4 C10.6,24.4 18.2,27.6 24.4,26.8 C34.3,26.2 41.3,22.1 41.3,22.1 L43.4,25.4 C43.4,25.4 36.4,31.4 21.6,31.7 C15.4,32.5 7.8,29.1 7.8,29.1 C7.8,29.1 8.2,26.5 8.4,26.2 C9,25.3 10.6,24.4 10.6,24.4" id="cinturon" stroke="#000000" stroke-width="0.5" fill="#D4D4D4"></path>
                <path d="M1,23.7 C1.2,25.8 2.3,27.1 3.6,28 C4.9,28.9 8.2,24.6 8.2,24.6 C8.2,24.6 6.2,21.7 7,20.6 C7.9,19.6 10.7,17.9 10.7,17.9 L6.1,16.5 L5.8,16.9 C5.8,16.9 1,19.2 1,23.7 L1,23.7 Z" id="brazo" fill="#D4D4D4"></path>
                <path d="M5.9,16.8 C5.9,16.8 1,19.1 1,23.7 C1.2,25.8 2.3,27.1 3.6,28 C4.9,28.9 8.3,24.6 8.3,24.6 C8.3,24.6 6.2,21.6 7.1,20.6 C8,19.6 10.9,17.9 10.9,17.9 L6.2,16.5 L5.9,16.8 L5.9,16.8 Z" id="brazo" stroke="#000000" stroke-width="0.5"></path>
                <g id="mano1-+-dedo11-+-dedo1" transform="translate(3.000000, 23.000000)" stroke="#000000" stroke-width="0.5">
                    <path d="M4.9,-0.3 C2.1,0.7 0.5,4.4 0.5,4.4 C0.5,4.4 -0.2,6.9 0.3,7.7 C0.4,8.3 0.9,8.5 1.3,8.7 C2,9 2.2,10.8 3.3,10.5 C4.4,10.2 3.76812747,9.88549842 3.76812747,9.88549842 C3.76812747,9.88549842 4.6,10.4 5.2,10.1 C5.8,9.8 5.4,9.1 5.2,8.7 C5,8.3 4.8,7.6 5.1,6.8 C5.3,6.1 5.4,3.5 6.3,2.8 C7.3,1.9 8.9,1.8 9.1,2 C9.3,2.2 7.7,-1.3 4.9,-0.3 L4.9,-0.3 Z" id="mano1" fill="#D4D4D4"></path>
                    <path d="M4.2,4.6 L3.2,7.2 C3.2,7.2 2.5,8 3.2,8.8 C3.5,9.5 4.2,10.3 4.2,10.3" id="dedo11"></path>
                    <path d="M2.4,4.9 C2.4,4.9 0.7,7.3 1.3,8.8" id="dedo1"></path>
                </g>
                <path d="M46.4,15.3 C47.3,16.9 47.3,17.6 47.8,20.3 C48.2,23 46.6,26.4 45.3,26.4 C44.1,26.3 44.3,26.3 43.1,26.6 C41.8,26.8 41.3,26 41.1,25.7 C40.9,25.4 38.6,22.1 38.8,20.4 C39,18.7 40.3,16.6 40.3,16.6 L41.1,15.7 C41.1,15.7 44.1,17.4 46.4,15.3" id="Shape" stroke="#000000" stroke-width="0.5" fill="#D4D4D4"></path>
                <path d="M5.9,16.9 C7.9,17.7 9.7,20 11.4,20.7 C12.2,21.6 11.7,21.2 12.5,21.5 C13.1,21.3 12.5,22.1 13,22.4 C13.5,22.7 13.1,22.4 13.7,22.8 C13.9,23.6 14.8,23.3 15.5,23.7 C16.1,24.1 16.1,24.5 17,24.8 C18,25.1 18.3,24.7 19.1,24.7 C20,24.7 21,25.4 21.7,25.9 C22.3,26.1 23.5,25.8 24,25.6 C24.2,25.6 24.1,25.6 24.3,25.8 C25,25.9 25.2,25.8 25.6,25.7 C25.9,25.7 25.7,26 26.2,26.2 C26.7,26.4 26.9,25.9 27.5,25.7 C28.1,25.5 27.6,26 28.4,26 C29.3,26 29,25.8 29.7,25.4 C29.9,25.3 30.1,25.8 30.7,25.7 C30.9,25.7 31.1,25.6 31.7,25.4 C31.9,25.3 32.7,25.5 33.3,25.4 C34,25.2 36.4,22.9 37.3,22.9 C38.4,22.4 38.9,21.8 39.5,20.9 C40.1,20 41.4,19.4 41.8,18.7 L41.5,16.6 L41.4,15.6 C41.4,15.6 36.9,16.2 37.9,10.5 C38.6,7 37.9,4 33.1,1.5 C28.3,-1 18.5,0.3 17.6,0.5 C13.6,1 6.6,7.9 15.6,11.8 C15.4,11.9 14.3,13.6 14.3,13.6 C14.3,13.6 7.5,13.3 5.9,16.9 L5.9,16.9 Z" id="Shape" stroke="#000000" stroke-width="0.5" fill="#D4D4D4"></path>
                <path d="M18.5,1.3 C13.8,2 9.1,6.9 17,10.2 L21.6,13.5 L27.3,5.8 L26.9,1.3 C22.6,1 19.1,1.2 18.5,1.3 Z" id="Shape" fill="#000000"></path>
                <path d="M15.1,11.9 C14.5,12.6 13.1,14.2 13.2,16.2 C13.6,16.7 13.8,16.1 13.8,16.1 C13.8,16.1 12.8,19.9 14.4,21.4 C14.9,21.8 15.2,21.6 15.4,21.9 C15.8,22.6 15.9,22.8 15.9,22.8 C15.9,22.8 16.7,22.7 18.2,22.7 C18.3,23.2 17.4,23.6 17.8,24 C18.3,24.4 19.7,24.1 19.7,24.1 C19.7,24.1 21,24.3 21.5,24.4 C22.3,24.5 23.1,23.8 23.1,23.8 C23.1,23.8 23.3,24.5 23.7,24.5 C25.2,24 26.5,24.6 26.8,24.6 C27.2,24.4 28.5,23.9 29.1,23.9 C29.7,23.9 30.2,24 31.3,23.4 C32,22.8 32.7,21.5 32.8,21.6 C33.3,21.4 33.2,22.5 33.2,22.5 C34,22.3 34.3,19.9 34.3,19.9 C34.3,19.9 35.1,17.7 35.7,19.7 C36.2,19.7 36.8,16.5 36.2,15.9 C36.1,15.7 36,15.6 35.9,15.4 L24.6,16.9 L15.1,11.9 L15.1,11.9 Z" id="Shape" stroke="#000000" stroke-width="0.5" fill="#D4D4D4"></path>
                <path d="M33.7,12.5 C33.5,11.9 33.4,11.4 33.4,10.8 C33.1,10.4 33,10.3 32.7,9.8 C31.9,8.5 32.4,8.3 32.1,6 C31.1071404,3.81570897 30.902897,3.30722712 28.9425683,1.83198001 C28.5,1.7 27,1.1 25.6,1.3 C22.7,1.7 20.7,3.2 19.7,5.6 C18.8,10 15.4,11.7 15.4,11.7 C15.4,11.7 15.4,11.7 15.1,12 C15.1,12 14,17.5 19.7,19.1 C21.4,19.2 21.8,19.3 22.4,19.1 C22.9,18.9 23.4,18.2 25.6,19.8 C29.3,20.8 30,19.8 31.6,19.5 C33.6,19 36.1,15.4 36.1,15.3 C35.7,14.6 34.6,13.7 33.7,12.5 L33.7,12.5 Z" id="Shape" stroke="#000000" stroke-width="0.5" fill="#D4D4D4"></path>
                <path d="M26.1,6.5 C26.1,5.5 26.7,4.7 27.5,4.7 C28.3,4.7 28.7,5.5 28.7,6.5 C28.7,7.5 28.3,8.3 27.5,8.3 C26.7,8.3 26.1,7.4 26.1,6.5" id="Shape" fill="#FFFFFF"></path>
                <path d="M26,6.5 C26,5.5 26.7,4.7 27.5,4.7 C28.3,4.7 28.7,5.5 28.7,6.5 C28.7,7.5 28.3,8.3 27.5,8.3 C26.7,8.3 26,7.5 26,6.5 L26,6.5 L26,6.5 Z" id="Shape" stroke="#000000" stroke-width="0.5"></path>
                <path d="M27.6,5.5 C27.7,5.6 27.8,5.8 27.8,6 C27.8,6.5 27.5,6.7 26.9,6.9 C26.6,7 26.3,7.1 26.2,7 C26.2,7 26.1,6.3 26.2,5.9 L27.6,5.5 L27.6,5.5 Z" id="Shape" fill="#000000"></path>
                <path d="M26.1,6.2 C26.2,5.5 26.7,4.6 27.5,4.6 C28.3,4.6 28.7,5.4 28.7,6 C28.7,6.1 28.1,5.9 27.4,5.9 C26.7,5.9 26,6.3 26.1,6.2" id="Shape" stroke="#000000" stroke-width="0.5" fill="#D4D4D4"></path>
                <path d="M23.5,2.5 C23.2,2.5 22.3,2.7 21.9,3.3 C21.6,3.9 21.4,4.2 21.7,4.5 C22,4.8 22.4,5 22.9,4.4 C23.4,3.8 23.4,3.3 23.7,3.2 C23.9,3.1 24.8,2.4 23.5,2.5 L23.5,2.5 L23.5,2.5 Z" id="Shape" stroke="#000000" stroke-width="0.5"></path>
                <path d="M28.6,3 C28.6,3 27.8,2.5 27.4,2.5 C26.9,2.5 26.5,3 26.9,3.3 C27.3,3.6 27.9,4.1 28,4.2 C28.1,4.3 28.6,4.8 28.8,4.7 C29,4.6 29.6,4 29.4,3.7 C29.1,3.6 28.6,3 28.6,3 L28.6,3 L28.6,3 Z" id="Shape" stroke="#000000" stroke-width="0.5"></path>
                <path d="M21.8,6.5 C21.8,5.5 22.4,4.7 23.2,4.7 C24,4.7 24.4,5.5 24.4,6.5 C24.4,7.5 24,8.3 23.2,8.3 C22.4,8.3 21.8,7.5 21.8,6.5" id="Shape" stroke="#000000" stroke-width="0.5" fill="#FFFFFF"></path>
                <path d="M21.7,6.5 C21.7,5.5 22.4,4.7 23.2,4.7 C24,4.7 24.4,5.5 24.4,6.5 C24.4,7.5 24,8.3 23.2,8.3 C22.4,8.4 21.7,7.5 21.7,6.5 L21.7,6.5 L21.7,6.5 Z" id="Shape" stroke="#000000" stroke-width="0.066"></path>
                <path d="M23.3,5.6 C23.4,5.7 23.5,5.9 23.5,6.1 C23.5,6.6 23.2,6.8 22.6,7 C22.3,7.1 22,7.2 21.9,7.1 C21.9,7.1 21.8,6.4 21.9,6 L23.3,5.6 L23.3,5.6 Z" id="Shape" fill="#000000"></path>
                <path d="M21.8,6.3 C21.9,5.6 22.4,4.7 23.2,4.7 C24,4.7 24.4,5.5 24.4,6.1 C24.4,6.2 23.8,6 23.1,6 C22.4,6 21.7,6.3 21.8,6.3" id="Shape" stroke="#000000" stroke-width="0.5" fill="#D4D4D4"></path>
                <path d="M27.8,10.2 C27.8,10.2 28.3,12.3 30,12 C31.7,11.7 32.1,11.1 32.4,10.5 M20.1,11.7 C20.1,11.7 21.1,12.1 21.3,12.8 C21.5,13.5 23.2,14.6 25,14.4 C26.8,14.2 28.5,14.3 29.5,12 M18.6,9.8 C18.6,9.8 18.5,11.7 20.1,11.7 C21.7,11.6 21.8,9.9 21.8,9.9" id="Shape" stroke="#000000" stroke-width="0.5"></path>
                <path d="M24.1,8.3 L23.5,9.8 C23.5,9.8 22.8,12.3 24.4,12.4 C26,12.5 26.3,10.1 26.3,9.5 C26.4,8.9 26.9,8.7 26,8.1 C25,7.5 24.1,8.3 24.1,8.3 Z" id="Shape" stroke="#000000" stroke-width="0.5"></path>
                <path d="M25.9,8.6 C25.9,7.8 26.6,7.1 27.4,7.1 C28.2,7.1 28.9,7.8 28.9,8.6 C28.9,9.4 28.2,10.1 27.4,10.1 C26.6,10 25.9,9.4 25.9,8.6" id="Shape" stroke="#000000" stroke-width="0.5" fill="#D4D4D4"></path>
                <path d="M21.2,8.6 C21.2,7.8 21.9,7.1 22.7,7.1 C23.5,7.1 24.2,7.8 24.2,8.6 C24.2,9.4 23.5,10.1 22.7,10.1 C21.8,10.1 21.2,9.4 21.2,8.6" id="Shape" stroke="#000000" stroke-width="0.5" fill="#D4D4D4"></path>
                <path d="M18.8,25.6 C18.8,25.6 16.5,25 16.1,26.5 C15.7,28.1 15.7,30.9 15.7,30.9 C15.7,30.9 15.6,32 17.3,32.2 C19,32.4 22.5,32.4 22.5,32.4 C22.5,32.4 23.9,32.5 23.6,31.1 C23.3,29.7 23.3,29.4 23.4,28.8 C23.5,28.2 23.6,26.8 23.6,26.8 C23.6,26.8 24,25.5 22.4,25.6 C21,25.8 18.8,25.6 18.8,25.6" id="Shape" stroke="#000000" stroke-width="0.5" fill="#D4D4D4"></path>
                <path d="M17.5,27.3 C17.3,28.4 17.3,30.4 17.3,30.4 C17.3,30.4 17.3,31.2 18.2,31.3 C19.1,31.4 21.1,31.5 21.1,31.5 C21.1,31.5 21.9,31.6 21.7,30.6 C21.5,29.6 21.6,29.4 21.6,28.9 C21.6,28.5 21.7,27.5 21.7,27.5 C21.7,27.5 21.9,26.6 21.1,26.6 L19,26.6 C18.302552,26.6 17.7,26.2 17.5,27.3 Z" id="Shape" stroke="#000000" stroke-width="0.5" fill="#D4D4D4"></path>
                <path d="M44.1,36.4 L44.9,36.4 C45.3,36.4 45.7,36.5 45.7,37 C45.7,37.6 45.2,37.6 44.7,37.6 L44.1,37.6 L44.1,36.4 L44.1,36.4 Z M43.5,39.7 L44.1,39.7 L44.1,38 L44.7,38 L45.7,39.6 L46.3,39.6 L45.2,37.9 C45.8,37.8 46.2,37.6 46.2,36.9 C46.2,36.2 45.8,35.8 44.9,35.8 L43.5,35.8 L43.5,39.7 L43.5,39.7 Z M42.1,37.8 C42.1,36.3 43.2,35.1 44.8,35.1 C46.3,35.1 47.4,36.3 47.4,37.8 C47.4,39.4 46.3,40.6 44.8,40.6 C43.3,40.5 42.1,39.3 42.1,37.8 L42.1,37.8 L42.1,37.8 Z M41.5,37.8 C41.5,39.6 43,41 44.7,41 C46.5,41 47.9,39.6 47.9,37.8 C47.9,36 46.4,34.6 44.7,34.6 C43,34.6 41.5,36 41.5,37.8 L41.5,37.8 L41.5,37.8 Z" id="Shape" fill="#000000"></path>
                <path d="M59.7,52.9 C60,52.9 60.2,52.6 60.2,52.3 C60.2,52.1 60,51.9 59.8,51.9 C59.5,51.9 59.3,52.2 59.3,52.5 C59.3,52.8 59.5,52.9 59.7,52.9" id="Shape" fill="#000000"></path>
                <path d="M62.2,52.9 C62.5,52.9 62.7,52.6 62.7,52.3 C62.7,52.1 62.5,51.9 62.3,51.9 C62,51.9 61.8,52.2 61.8,52.5 C61.8,52.8 62,52.9 62.2,52.9" id="Shape" fill="#000000"></path>
                <path d="M64.7,52.9 C65,52.9 65.2,52.6 65.2,52.3 C65.2,52.1 65,51.9 64.8,51.9 C64.5,51.9 64.3,52.2 64.3,52.5 C64.3,52.8 64.5,52.9 64.7,52.9" id="Shape" fill="#000000"></path>
                <path d="M70.2,52.1 L70,51.8 C69.5,52.3 69.1,52.5 68.6,52.5 C67.9,52.5 67.4,52 67.4,51.1 C67.4,49.7 68.2,48.7 69.1,48.7 C69.6,48.7 69.9,49 69.9,49.4 C69.9,49.6 69.9,49.8 69.8,50 L70.2,50.1 L70.5,48.4 L70.1,48.3 L70,48.8 C69.8,48.5 69.5,48.3 69,48.3 C68.5,48.3 68,48.5 67.6,48.8 C67,49.4 66.6,50.1 66.6,51 C66.6,52.1 67.3,52.8 68.4,52.8 C69,53 69.6,52.7 70.2,52.1" id="Shape" fill="#000000"></path>
                <path d="M72.7,52.6 C72.1,52.6 71.7,52.2 71.7,51.3 C71.7,50.5 71.9,49.8 72.3,49.3 C72.6,48.9 72.9,48.7 73.3,48.7 C73.9,48.7 74.3,49.1 74.3,50 C74.3,51 73.9,51.8 73.4,52.3 C73.2,52.5 73,52.6 72.7,52.6 M72.8,53 C74.1,53 75.2,51.9 75.2,50.4 C75.2,49.3 74.4,48.5 73.4,48.5 C72.7,48.5 72.1,48.8 71.7,49.3 C71.3,49.8 71.1,50.4 71.1,51 C71,52.2 71.7,53 72.8,53" id="Shape" fill="#000000"></path>
                <path d="M75.6,52.9 L76.5,52.9 L77.5,52.9 L77.6,52.5 L77,52.5 L77.4,50.3 C77.6,49.4 78.3,48.9 78.9,48.9 C79.3,48.9 79.5,49.1 79.5,49.5 C79.5,49.7 79.5,49.9 79.4,50.2 L79,51.9 C79,52.1 78.9,52.3 78.9,52.4 C78.9,52.8 79.1,53 79.5,53 C79.9,53 80.2,52.8 80.5,52.5 L80.3,52.2 C80.1,52.4 79.9,52.5 79.8,52.5 C79.7,52.5 79.6,52.4 79.6,52.3 C79.6,52.2 79.6,52.1 79.7,51.8 L80.2,49.9 C80.2,49.7 80.3,49.5 80.3,49.4 C80.3,48.8 79.9,48.4 79.2,48.4 C78.6,48.4 78.1,48.6 77.6,49.2 L77.8,48.4 C77.4,48.5 76.9,48.5 76.5,48.5 L76.4,48.9 L77,48.9 L76.3,52.5 L75.7,52.5 L75.6,52.9 L75.6,52.9 Z" id="Shape" fill="#000000"></path>
                <path d="M83.6,52.9 L84.5,52.9 L85.5,52.9 L85.6,52.5 L85,52.5 L85.4,50.3 C85.5,49.9 85.6,49.6 85.9,49.3 C86.2,49 86.5,48.9 86.7,48.9 C87.1,48.9 87.3,49.1 87.3,49.4 C87.3,49.5 87.3,49.8 87.2,50.2 L86.7,52.5 L86.1,52.5 L86,52.9 L86.9,52.9 L87.9,52.9 L88,52.5 L87.4,52.5 L87.8,50.3 C88,49.4 88.6,48.9 89.3,48.9 C89.7,48.9 89.9,49.1 89.9,49.5 C89.9,49.7 89.9,49.9 89.8,50.2 L89.4,51.9 C89.4,52.1 89.3,52.3 89.3,52.4 C89.3,52.8 89.5,53 90,53 C90.4,53 90.7,52.8 91,52.5 L90.8,52.2 C90.6,52.4 90.4,52.5 90.3,52.5 C90.2,52.5 90.1,52.4 90.1,52.3 C90.1,52.2 90.1,52.1 90.2,51.8 L90.7,49.9 C90.7,49.7 90.8,49.5 90.8,49.4 C90.8,48.8 90.4,48.4 89.7,48.4 C89.2,48.4 88.7,48.7 88.1,49.2 C88,48.7 87.7,48.4 87.1,48.4 C86.6,48.4 86.1,48.7 85.6,49.2 L85.8,48.4 C85.4,48.5 84.9,48.5 84.5,48.5 L84.4,48.9 L85,48.9 L84.3,52.5 L83.7,52.5 L83.6,52.9 L83.6,52.9 Z" id="Shape" fill="#000000"></path>
                <path d="M95.6,48.6 L95.4,49.3 C95.2,48.8 94.8,48.5 94.2,48.5 C93.6,48.5 93.1,48.7 92.7,49.2 C92.2,49.8 91.9,50.6 91.9,51.3 C91.9,52.4 92.5,53 93.4,53 C94,53 94.5,52.7 94.9,52.2 L94.9,52.4 C94.9,52.8 95,52.9 95.4,52.9 C95.7,52.9 95.9,52.8 96.3,52.6 L96.3,52.2 C96.1,52.3 96,52.4 95.9,52.4 C95.8,52.4 95.7,52.3 95.7,52.2 C95.7,52.1 95.7,51.9 95.8,51.6 L96.4,48.3 L95.6,48.6 L95.6,48.6 Z M95.1,51.2 C95,51.9 94.3,52.5 93.7,52.5 C93.1,52.5 92.7,52 92.7,51.2 C92.7,50.5 92.9,49.8 93.3,49.3 C93.6,48.9 93.9,48.7 94.3,48.7 C94.9,48.7 95.3,49.1 95.3,49.7 L95.3,50 L95.1,51.2 L95.1,51.2 Z" id="Shape" fill="#000000"></path>
                <path d="M100.4,51.2 C100.3,51.9 99.6,52.5 99,52.5 C98.4,52.5 98,52 98,51.2 C98,50.5 98.2,49.8 98.6,49.3 C98.9,48.9 99.2,48.7 99.6,48.7 C100.2,48.7 100.6,49.1 100.6,49.7 L100.6,50 L100.4,51.2 L100.4,51.2 Z M101.2,47.1 L100.8,49.3 C100.6,48.8 100.2,48.5 99.6,48.5 C99,48.5 98.5,48.7 98.1,49.2 C97.6,49.8 97.3,50.6 97.3,51.3 C97.3,52.4 97.9,53 98.8,53 C99.4,53 99.9,52.7 100.3,52.2 L100.3,52.4 C100.3,52.8 100.4,52.9 100.8,52.9 C101.1,52.9 101.3,52.8 101.7,52.6 L101.7,52.2 C101.5,52.3 101.4,52.4 101.3,52.4 C101.2,52.4 101.1,52.3 101.1,52.2 C101.1,52.1 101.1,52 101.2,51.6 L102.2,46.5 C101.8,46.6 101.3,46.6 100.9,46.6 L100.8,46.6 L100.7,47 L101.2,47 L101.2,47.1 L101.2,47.1 Z" id="Shape" fill="#000000"></path>
                <path d="M103.4,50.7 C103.5,49.5 104.1,48.8 104.9,48.8 C105.5,48.8 105.9,49.3 105.9,50.1 L103.4,50.7 L103.4,50.7 Z M106.4,52 L106.1,51.8 C105.7,52.3 105.2,52.6 104.7,52.6 C103.9,52.6 103.4,52.1 103.4,51.2 L106.8,50.4 C106.8,49.2 106.1,48.5 104.9,48.5 C104.3,48.5 103.7,48.8 103.2,49.3 C102.8,49.8 102.5,50.4 102.5,51.1 C102.5,52.3 103.3,53.1 104.4,53.1 C105.2,53 105.9,52.7 106.4,52 L106.4,52 L106.4,52 Z" id="Shape" fill="#000000"></path>
                <path d="M108.9,49.3 L109.1,48.4 C108.7,48.5 108.3,48.5 107.9,48.5 L107.8,48.5 L107.7,48.9 L108.3,48.9 L107.6,52.5 L107,52.5 L106.9,52.9 L107.8,52.9 L108.8,52.9 L108.9,52.5 L108.3,52.5 L108.7,50.3 C108.8,49.5 109.2,49.1 109.7,49.1 C109.9,49.1 110,49.1 110.2,49.2 L110.4,48.4 C110.3,48.4 110.1,48.3 110,48.3 C109.8,48.4 109.4,48.7 108.9,49.3" id="Shape" fill="#000000"></path>
                <path d="M114.3,48.6 L114.1,49.3 C113.9,48.8 113.5,48.5 112.9,48.5 C112.3,48.5 111.8,48.7 111.4,49.2 C110.9,49.8 110.6,50.6 110.6,51.3 C110.6,52.4 111.2,53 112.1,53 C112.7,53 113.2,52.7 113.6,52.2 L113.6,52.4 C113.6,52.8 113.7,52.9 114.1,52.9 C114.4,52.9 114.6,52.8 115,52.6 L115,52.2 C114.8,52.3 114.7,52.4 114.6,52.4 C114.5,52.4 114.4,52.3 114.4,52.2 C114.4,52.1 114.4,51.9 114.5,51.6 L115.1,48.3 L114.3,48.6 L114.3,48.6 Z M113.8,51.2 C113.7,51.9 113,52.5 112.4,52.5 C111.8,52.5 111.4,52 111.4,51.2 C111.4,50.5 111.6,49.8 112,49.3 C112.3,48.9 112.6,48.7 113,48.7 C113.6,48.7 114,49.1 114,49.7 L114,50 L113.8,51.2 L113.8,51.2 Z" id="Shape" fill="#000000"></path>
                <path d="M121.6,51.2 C121.5,51.9 120.8,52.5 120.2,52.5 C119.6,52.5 119.2,52 119.2,51.2 C119.2,50.5 119.4,49.8 119.8,49.3 C120.1,48.9 120.4,48.7 120.8,48.7 C121.4,48.7 121.8,49.1 121.8,49.7 L121.8,50 L121.6,51.2 L121.6,51.2 Z M122.4,47.1 L122,49.3 C121.8,48.8 121.4,48.5 120.8,48.5 C120.2,48.5 119.7,48.7 119.3,49.2 C118.8,49.8 118.5,50.6 118.5,51.3 C118.5,52.4 119.1,53 120,53 C120.6,53 121.1,52.7 121.5,52.2 L121.5,52.4 C121.5,52.8 121.6,52.9 122,52.9 C122.3,52.9 122.5,52.8 122.9,52.6 L122.9,52.2 C122.7,52.3 122.6,52.4 122.5,52.4 C122.4,52.4 122.3,52.3 122.3,52.2 C122.3,52.1 122.3,52 122.4,51.6 L123.4,46.5 C123,46.6 122.5,46.6 122.1,46.6 L122,46.6 L121.9,47 L122.4,47 L122.4,47.1 L122.4,47.1 Z" id="Shape" fill="#000000"></path>
                <path d="M124.6,50.7 C124.7,49.5 125.3,48.8 126.1,48.8 C126.7,48.8 127.1,49.3 127.1,50.1 L124.6,50.7 L124.6,50.7 Z M127.6,52 L127.3,51.8 C126.9,52.3 126.4,52.6 125.9,52.6 C125.1,52.6 124.6,52.1 124.6,51.2 L128,50.4 C128,49.2 127.3,48.5 126.1,48.5 C125.5,48.5 124.9,48.8 124.4,49.3 C124,49.8 123.7,50.4 123.7,51.1 C123.7,52.3 124.5,53.1 125.6,53.1 C126.4,53 127.1,52.7 127.6,52 L127.6,52 L127.6,52 Z" id="Shape" fill="#000000"></path>
                <path d="M130.7,52.9 L131.6,52.9 L132.6,52.9 L132.7,52.5 L132.1,52.5 L132.5,50.3 C132.7,49.4 133.4,48.9 134,48.9 C134.4,48.9 134.6,49.1 134.6,49.5 C134.6,49.7 134.6,49.9 134.5,50.2 L134.1,51.9 C134.1,52.1 134,52.3 134,52.4 C134,52.8 134.2,53 134.7,53 C135.1,53 135.4,52.8 135.7,52.5 L135.5,52.2 C135.3,52.4 135.1,52.5 135,52.5 C134.9,52.5 134.8,52.4 134.8,52.3 C134.8,52.2 134.8,52.1 134.9,51.8 L135.4,49.9 C135.4,49.7 135.5,49.5 135.5,49.4 C135.5,48.8 135.1,48.4 134.4,48.4 C133.8,48.4 133.3,48.6 132.8,49.2 L133.2,46.6 C132.7,46.7 132.3,46.7 131.8,46.7 L131.7,47.1 L132.3,47.1 L131.3,52.5 L130.7,52.5 L130.7,52.9 L130.7,52.9 Z" id="Shape" fill="#000000"></path>
                <path d="M138.3,52.6 C137.7,52.6 137.3,52.2 137.3,51.3 C137.3,50.5 137.5,49.8 137.9,49.3 C138.2,48.9 138.5,48.7 138.9,48.7 C139.5,48.7 139.9,49.1 139.9,50 C139.9,51 139.5,51.8 139,52.3 C138.8,52.5 138.6,52.6 138.3,52.6 M138.3,53 C139.6,53 140.7,51.9 140.7,50.4 C140.7,49.3 139.9,48.5 138.9,48.5 C138.2,48.5 137.6,48.8 137.2,49.3 C136.8,49.8 136.6,50.4 136.6,51 C136.5,52.2 137.3,53 138.3,53" id="Shape" fill="#000000"></path>
                <path d="M145.2,48.6 L145,49.3 C144.8,48.8 144.4,48.5 143.8,48.5 C143.2,48.5 142.7,48.7 142.3,49.2 C141.8,49.8 141.5,50.6 141.5,51.3 C141.5,52.4 142.1,53 143,53 C143.6,53 144.1,52.8 144.5,52.2 L144.4,52.7 C144.2,53.9 143.9,54.5 143.2,54.5 C142.7,54.5 142.3,54.2 142.1,53.5 L141.5,54 C141.9,54.5 142.4,54.8 143.1,54.8 C144.3,54.8 144.9,54 145.2,52.4 L145.9,48.8 L146.3,48.8 L146.4,48.4 L145.8,48.4 C145.6,48.6 145.4,48.6 145.2,48.6 L145.2,48.6 L145.2,48.6 Z M144.7,51.2 C144.6,51.9 143.9,52.5 143.3,52.5 C142.7,52.5 142.3,52 142.3,51.2 C142.3,50.5 142.5,49.8 142.9,49.3 C143.2,48.9 143.5,48.7 143.9,48.7 C144.5,48.7 144.9,49.1 144.9,49.7 L144.9,50 L144.7,51.2 L144.7,51.2 Z" id="Shape" fill="#000000"></path>
                <path d="M150.5,48.6 L150.3,49.3 C150.1,48.8 149.7,48.5 149.1,48.5 C148.5,48.5 148,48.7 147.6,49.2 C147.1,49.8 146.8,50.6 146.8,51.3 C146.8,52.4 147.4,53 148.3,53 C148.9,53 149.4,52.7 149.8,52.2 L149.8,52.4 C149.8,52.8 149.9,52.9 150.3,52.9 C150.6,52.9 150.8,52.8 151.2,52.6 L151.2,52.2 C151,52.3 150.9,52.4 150.8,52.4 C150.7,52.4 150.6,52.3 150.6,52.2 C150.6,52.1 150.6,51.9 150.7,51.6 L151.3,48.3 L150.5,48.6 L150.5,48.6 Z M150,51.2 C149.9,51.9 149.2,52.5 148.6,52.5 C148,52.5 147.6,52 147.6,51.2 C147.6,50.5 147.8,49.8 148.2,49.3 C148.5,48.9 148.8,48.7 149.2,48.7 C149.8,48.7 150.2,49.1 150.2,49.7 L150.2,50 L150,51.2 L150,51.2 Z" id="Shape" fill="#000000"></path>
                <path d="M153.7,49.3 L153.9,48.4 C153.5,48.5 153.1,48.5 152.7,48.5 L152.6,48.5 L152.5,48.9 L153.1,48.9 L152.4,52.5 L151.8,52.5 L151.7,52.9 L152.6,52.9 L153.6,52.9 L153.7,52.5 L153.1,52.5 L153.5,50.3 C153.6,49.5 154,49.1 154.5,49.1 C154.7,49.1 154.8,49.1 155,49.2 L155.2,48.4 C155.1,48.4 154.9,48.3 154.8,48.3 C154.6,48.4 154.2,48.7 153.7,49.3" id="Shape" fill="#000000"></path>
                <path d="M156.1,51.3 L156.4,51.3 C157,49.6 157.4,48.1 157.5,46.7 L156.6,46.7 C156.5,48.2 156.4,49.7 156.1,51.3 M156,52.9 C156.3,52.9 156.5,52.6 156.5,52.3 C156.5,52.1 156.3,51.9 156.1,51.9 C155.8,51.9 155.6,52.2 155.6,52.5 C155.6,52.8 155.8,52.9 156,52.9" id="Shape" fill="#000000"></path>
                <path d="M164.1,16.6 L164.9,16.6 C165.3,16.6 165.7,16.7 165.7,17.2 C165.7,17.8 165.2,17.8 164.7,17.8 L164.1,17.8 L164.1,16.6 L164.1,16.6 Z M163.5,19.9 L164.1,19.9 L164.1,18.3 L164.7,18.3 L165.7,19.9 L166.3,19.9 L165.2,18.2 C165.8,18.1 166.2,17.9 166.2,17.2 C166.2,16.5 165.8,16.1 164.9,16.1 L163.5,16.1 L163.5,19.9 L163.5,19.9 Z M162.1,18 C162.1,16.5 163.2,15.3 164.8,15.3 C166.3,15.3 167.4,16.5 167.4,18 C167.4,19.6 166.3,20.8 164.8,20.8 C163.3,20.7 162.1,19.6 162.1,18 L162.1,18 L162.1,18 Z M161.5,18 C161.5,19.8 163,21.2 164.7,21.2 C166.5,21.2 167.9,19.8 167.9,18 C167.9,16.2 166.4,14.8 164.7,14.8 C163,14.8 161.5,16.2 161.5,18 L161.5,18 L161.5,18 Z" id="Shape" fill="#000000"></path>
                <path d="M63,13.4 L84.5,13.4 L84.5,18.7 L69.3,18.7 L69.3,25.7 L82.6,25.7 L82.6,31 L69.3,31 L69.3,43.7 L63,43.7 L63,13.4 L63,13.4 Z" id="Shape" fill="#000000"></path>
                <path d="M103.7,41 C101.8,43.3 98.9,44.5 95.1,44.5 C91.2,44.5 88.4,43.3 86.5,41 C84.6,38.7 83.7,35.8 83.7,32.5 C83.7,29.3 84.6,26.4 86.5,24.1 C88.4,21.7 91.3,20.5 95.1,20.5 C99,20.5 101.8,21.7 103.7,24.1 C105.6,26.5 106.5,29.3 106.5,32.5 C106.5,35.8 105.6,38.6 103.7,41 M99,37.7 C99.9,36.5 100.4,34.7 100.4,32.5 C100.4,30.2 99.9,28.5 99,27.3 C98.1,26.1 96.8,25.5 95,25.5 C93.3,25.5 92,26.1 91,27.3 C90.1,28.5 89.6,30.2 89.6,32.5 C89.6,34.8 90.1,36.5 91,37.7 C91.9,38.9 93.3,39.5 95,39.5 C96.7,39.5 98.1,38.9 99,37.7" id="Shape" fill="#000000"></path>
                <path d="M120.5,20.7 L121,20.7 L121,26.7 C120.6,26.7 120.3,26.6 120,26.6 L119.3,26.6 C116.9,26.6 115.4,27.4 114.5,28.9 C114,29.8 113.8,31.1 113.8,32.9 L113.8,43.6 L107.9,43.6 L107.9,21.1 L113.5,21.1 L113.5,25 C114.4,23.5 115.2,22.5 115.9,21.9 C117,21 118.4,20.5 120.2,20.5 C120.3,20.7 120.4,20.7 120.5,20.7" id="Shape" fill="#000000"></path>
                <path d="M140.5,12 L134.2,18.2 L130,18.2 L134,12 L140.5,12 L140.5,12 Z M138.1,21.7 C139.6,22.4 140.8,23.5 141.8,25 C142.7,26.3 143.2,27.9 143.5,29.6 C143.6,30.6 143.7,32.1 143.7,34.1 L128.3,34.1 C128.4,36.4 129.1,37.9 130.4,38.8 C131.2,39.4 132.2,39.6 133.3,39.6 C134.5,39.6 135.5,39.3 136.2,38.6 C136.6,38.2 137,37.7 137.3,37.1 L143.3,37.1 C143.1,38.4 142.5,39.8 141.2,41.2 C139.3,43.4 136.6,44.5 133.1,44.5 C130.2,44.5 127.7,43.6 125.5,41.7 C123.3,39.9 122.2,36.9 122.2,32.7 C122.2,28.8 123.2,25.8 125.1,23.8 C127.1,21.7 129.6,20.7 132.8,20.7 C134.9,20.6 136.6,21 138.1,21.7 L138.1,21.7 L138.1,21.7 Z M129.9,26.7 C129.2,27.6 128.7,28.7 128.5,30.2 L137.6,30.2 C137.5,28.6 137,27.5 136.2,26.7 C135.4,25.9 134.3,25.5 133.1,25.5 C131.7,25.5 130.6,25.9 129.9,26.7 L129.9,26.7 L129.9,26.7 Z" id="Shape" fill="#000000"></path>
                <path d="M150.1,36.5 C150.2,37.5 150.5,38.3 150.9,38.7 C151.6,39.5 153,39.9 154.9,39.9 C156.1,39.9 157,39.7 157.6,39.4 C158.3,39.1 158.6,38.5 158.6,37.9 C158.6,37.2 158.3,36.7 157.8,36.4 C157.3,36.1 155.2,35.5 151.7,34.6 C149.2,34 147.4,33.2 146.3,32.2 C145.3,31.3 144.7,29.9 144.7,28.2 C144.7,26.1 145.5,24.3 147.1,22.9 C148.7,21.4 151,20.7 154,20.7 C156.8,20.7 159.1,21.3 160.8,22.4 C162.6,23.5 163.6,25.4 163.8,28.2 L157.9,28.2 C157.8,27.4 157.6,26.8 157.3,26.4 C156.7,25.6 155.6,25.2 154,25.2 C152.7,25.2 151.8,25.4 151.3,25.8 C150.8,26.2 150.5,26.7 150.5,27.2 C150.5,27.9 150.8,28.4 151.4,28.7 C152,29 154,29.6 157.5,30.3 C159.8,30.8 161.6,31.7 162.8,32.8 C164,33.9 164.5,35.3 164.5,37 C164.5,39.2 163.7,41 162,42.5 C160.4,43.9 157.8,44.6 154.3,44.6 C150.8,44.6 148.2,43.9 146.5,42.4 C144.8,40.9 144,39 144,36.7 L150.1,36.7 L150.1,36.5 L150.1,36.5 Z" id="Shape" fill="#000000"></path>
            </g>
        </g>
    </g>
</svg>